<svg width="16" height="16" viewBox="0 0 16 16" fill="none" xmlns="http://www.w3.org/2000/svg">
<path d="M13.8663 6.46378H11.5944L10.5449 3.8492C10.3371 3.33175 9.84232 2.99738 9.2845 2.99738H6.72513C6.16732 2.99738 5.67305 3.33175 5.46523 3.8492L4.41533 6.46378H2.13294C1.83815 6.46378 1.59961 6.70258 1.59961 6.99712C1.59961 7.29165 1.83815 7.53045 2.13294 7.53045H2.5819L3.44222 11.6C3.61289 12.416 4.33822 13.0026 5.16488 13.0026H10.8342C11.6609 13.0026 12.3862 12.416 12.5569 11.6L13.4172 7.53045H13.8663C14.1611 7.53045 14.3996 7.29165 14.3996 6.99712C14.3996 6.70258 14.1611 6.46378 13.8663 6.46378ZM6.45482 4.24659C6.49961 4.13566 6.60534 4.06404 6.72513 4.06404H9.2845C9.4043 4.06404 9.51055 4.13566 9.55534 4.24659L10.4453 6.46378H5.56481L6.45482 4.24659ZM9.11689 10.4213H8.53555V11.0026C8.53555 11.296 8.29554 11.536 8.00221 11.536C7.70355 11.536 7.46888 11.296 7.46888 11.0026V10.4213H6.88223C6.58887 10.4213 6.34889 10.1813 6.34889 9.88797C6.34889 9.59464 6.58887 9.35463 6.88223 9.35463H7.46888V8.77332C7.46888 8.47999 7.70355 8.23999 8.00221 8.23999C8.29554 8.23999 8.53555 8.47999 8.53555 8.77332V9.35463H9.11689C9.41022 9.35463 9.65023 9.59464 9.65023 9.88797C9.65023 10.1813 9.41022 10.4213 9.11689 10.4213Z" fill="#333333"/>
</svg>
