<svg width="80" height="70" viewBox="0 0 80 70" fill="none" xmlns="http://www.w3.org/2000/svg">
<path fill-rule="evenodd" clip-rule="evenodd" d="M0 69.9221H65V17.9221H0V69.9221Z" fill="#FEEDA8"/>
<path fill-rule="evenodd" clip-rule="evenodd" d="M6.69922 58.4907H26.8008V38.304H6.69922V58.4907Z" fill="#C6AE60"/>
<path fill-rule="evenodd" clip-rule="evenodd" d="M10.7197 54.4541H22.7805V42.3416H10.7197V54.4541Z" fill="#FEEDA8"/>
<path fill-rule="evenodd" clip-rule="evenodd" d="M33.5 40.3227H46.9V38.304H33.5V40.3227Z" fill="#2A2513"/>
<path fill-rule="evenodd" clip-rule="evenodd" d="M33.5 44.3594H60.3008V42.3407H33.5V44.3594Z" fill="#C6AE60"/>
<path fill-rule="evenodd" clip-rule="evenodd" d="M33.5 48.397H60.3008V46.379H33.5V48.397Z" fill="#C6AE60"/>
<path fill-rule="evenodd" clip-rule="evenodd" d="M33.5 52.4353H60.3008V50.4165H33.5V52.4353Z" fill="#C6AE60"/>
<path fill-rule="evenodd" clip-rule="evenodd" d="M40.2002 58.4907H53.6002V54.454H40.2002V58.4907Z" fill="#65C192"/>
<path fill-rule="evenodd" clip-rule="evenodd" d="M0 17.7137V25.9946C0 27.8534 1.50001 29.36 3.35079 29.36C5.19999 29.36 6.69921 27.8534 6.69921 25.9946V17.7137H0Z" fill="#79D3A5"/>
<path fill-rule="evenodd" clip-rule="evenodd" d="M6.69922 17.7137V25.9946C6.69922 27.8534 8.19923 29.36 10.05 29.36C11.9008 29.36 13.4008 27.8534 13.4008 25.9946V17.7137H6.69922Z" fill="#65C192"/>
<path fill-rule="evenodd" clip-rule="evenodd" d="M13.4004 17.7137V25.9946C13.4004 27.8534 14.898 29.36 16.7504 29.36C18.5996 29.36 20.1004 27.8534 20.1004 25.9946V17.7137H13.4004Z" fill="#79D3A5"/>
<path fill-rule="evenodd" clip-rule="evenodd" d="M20.1006 17.7137V25.9946C20.1006 27.8534 21.5998 29.36 23.4498 29.36C25.3014 29.36 26.8006 27.8534 26.8006 25.9946V17.7137H20.1006Z" fill="#65C192"/>
<path fill-rule="evenodd" clip-rule="evenodd" d="M26.8008 17.7137V25.9946C26.8008 27.8534 28.3 29.36 30.1508 29.36C32.0008 29.36 33.5 27.8534 33.5 25.9946V17.7137H26.8008Z" fill="#79D3A5"/>
<path fill-rule="evenodd" clip-rule="evenodd" d="M33.5 17.7137V25.9946C33.5 27.8534 35 29.36 36.85 29.36C38.7008 29.36 40.2008 27.8534 40.2008 25.9946V17.7137H33.5Z" fill="#65C192"/>
<path fill-rule="evenodd" clip-rule="evenodd" d="M40.2012 17.7137V25.9946C40.2012 27.8534 41.7004 29.36 43.5512 29.36C45.4019 29.36 46.9012 27.8534 46.9012 25.9946V17.7137H40.2012Z" fill="#79D3A5"/>
<path fill-rule="evenodd" clip-rule="evenodd" d="M46.9004 17.7137V25.9946C46.9004 27.8534 48.3996 29.36 50.2504 29.36C52.1004 29.36 53.5996 27.8534 53.5996 25.9946V17.7137H46.9004Z" fill="#65C192"/>
<path fill-rule="evenodd" clip-rule="evenodd" d="M65 18.0789V9.02646C65 6.84651 63.31 5.07886 61.2258 5.07886H2.95645C1.32306 5.07886 0 6.46271 0 8.17115V18.0789H65Z" fill="#2A2513"/>
<path opacity="0.2" fill-rule="evenodd" clip-rule="evenodd" d="M65 69.9221V17.9221H0L65 69.9221Z" fill="#2F2515"/>
<path fill-rule="evenodd" clip-rule="evenodd" d="M16.6318 11.276C16.6318 9.933 17.7212 8.84363 19.0642 8.84363C20.4072 8.84363 21.4966 9.933 21.4966 11.276C21.4966 12.619 20.4072 13.7084 19.0642 13.7084C17.7212 13.7084 16.6318 12.619 16.6318 11.276Z" fill="#FEEDA8"/>
<path fill-rule="evenodd" clip-rule="evenodd" d="M10.041 11.276C10.041 9.933 11.1304 8.84363 12.4734 8.84363C13.8164 8.84363 14.9058 9.933 14.9058 11.276C14.9058 12.619 13.8164 13.7084 12.4734 13.7084C11.1304 13.7084 10.041 12.619 10.041 11.276Z" fill="#FEEDA8"/>
<path fill-rule="evenodd" clip-rule="evenodd" d="M3.80469 11.276C3.80469 9.933 4.89406 8.84363 6.23706 8.84363C7.58006 8.84363 8.66942 9.933 8.66942 11.276C8.66942 12.619 7.58006 13.7084 6.23706 13.7084C4.89406 13.7084 3.80469 12.619 3.80469 11.276Z" fill="#FEEDA8"/>
<path fill-rule="evenodd" clip-rule="evenodd" d="M48.5889 25.0264L50.3768 38.6435L53.6199 28.9784L79.8978 0L48.5889 25.0264Z" fill="#FEC31A"/>
<path fill-rule="evenodd" clip-rule="evenodd" d="M50.377 38.6435L53.3706 27.6458L79.898 0L50.377 38.6435Z" fill="#FCD741"/>
<path fill-rule="evenodd" clip-rule="evenodd" d="M31.457 19.1034L48.6603 25.5669L79.8986 0L31.457 19.1034Z" fill="#F9E377"/>
<path fill-rule="evenodd" clip-rule="evenodd" d="M53.3711 27.6458L79.8985 0L75.7406 36.4814L53.3711 27.6458Z" fill="#F9E377"/>
</svg>
