<svg width="12" height="14" viewBox="0 0 12 14" fill="none" xmlns="http://www.w3.org/2000/svg">
<path d="M11.1175 9.4854L10.5095 9.1494V6.00272C10.5095 4.79738 10.0401 3.66672 9.19216 2.8134C8.46683 2.09338 7.5388 1.64539 6.53613 1.52804C6.5361 1.52804 6.53604 1.52804 6.536 1.52804V0.968148C6.536 0.673617 6.2972 0.434814 6.00267 0.434814C5.70814 0.434814 5.46934 0.673617 5.46934 0.968148V1.52808C3.23473 1.79481 1.49616 3.69875 1.49616 6.00272V9.1494L0.882812 9.4854C0.712142 9.57606 0.605469 9.75741 0.605469 9.95474V11.2881C0.605469 11.5814 0.845475 11.8214 1.1388 11.8214H3.7902C4.03265 12.818 4.92936 13.5654 6.0028 13.5654C7.07627 13.5654 7.96914 12.818 8.21042 11.8214H10.8615C11.1548 11.8214 11.3948 11.5814 11.3948 11.2881V9.95474C11.3948 9.75741 11.2882 9.5814 11.1175 9.4854ZM3.25615 5.09604C3.58148 4.10405 4.42415 3.36271 5.45348 3.16538C5.74147 3.10672 6.02415 3.29871 6.07747 3.58673C6.13613 3.87472 5.94414 4.15741 5.65615 4.21073C5.00547 4.33872 4.47214 4.80272 4.26947 5.43205C4.17092 5.72783 3.8431 5.8594 3.59216 5.76805C3.31481 5.67739 3.16549 5.37339 3.25615 5.09604Z" fill="#666666"/>
</svg>
