<svg width="16" height="15" viewBox="0 0 16 15" fill="none" xmlns="http://www.w3.org/2000/svg">
<path d="M2.99988 15.0001V13.0001H10.0999C11.1499 13.0001 12.0624 12.6667 12.8374 12.0001C13.6124 11.3334 13.9999 10.5001 13.9999 9.50006C13.9999 8.50006 13.6124 7.66673 12.8374 7.00006C12.0624 6.33339 11.1499 6.00006 10.0999 6.00006H3.79988L6.39988 8.60006L4.99988 10.0001L-0.00012207 5.00006L4.99988 6.10352e-05L6.39988 1.40006L3.79988 4.00006H10.0999C11.7165 4.00006 13.104 4.52506 14.2624 5.57506C15.4207 6.62506 15.9999 7.93339 15.9999 9.50006C15.9999 11.0667 15.4207 12.3751 14.2624 13.4251C13.104 14.4751 11.7165 15.0001 10.0999 15.0001H2.99988Z" fill="#666666"/>
</svg>
