<svg width="46" height="46" viewBox="0 0 46 46" fill="none" xmlns="http://www.w3.org/2000/svg">
<path d="M46 17.2609L25.7888 1.34577C23.3426 -0.448592 22.0958 -0.448592 19.6906 1.34577L0 17.2609L22.7394 37L46 17.2609Z" fill="#FFCC05"/>
<path d="M7 4H41V33H7V4Z" fill="#FEF1B8"/>
<path d="M22.9862 34.1419L46 17V41.7145C46 44.082 44.0659 46 41.6789 46H4.32111C1.9341 46 0 44.082 0 41.7145V17L22.9862 34.1419Z" fill="#FED940"/>
<path d="M42.5778 46C43.5051 45.9013 44.3456 45.521 45 44.9359L23.3326 28L2 44.9359C2.65599 45.5223 3.49374 45.9013 4.42506 46H42.5778Z" fill="#FDE577"/>
<path d="M30 16.5C30 20.0897 27.0897 23 23.5 23C19.9103 23 17 20.0897 17 16.5C17 12.9103 19.9103 10 23.5 10C27.0897 10 30 12.9103 30 16.5Z" fill="#302100"/>
<path d="M26.6945 15.2286C26.6945 15.2286 25.9034 12.8889 23.5034 12.8889C23.502 12.8889 23.501 12.8891 23.4999 12.8891C23.4989 12.8891 23.4981 12.8889 23.4968 12.8889C21.0969 12.8889 20.3049 15.2286 20.3049 15.2286C20.2648 15.371 20.1626 15.6635 20.4129 16.0778C20.7909 16.7045 21.8628 16.6231 22.1041 15.9031C22.1041 15.9031 22.3908 14.8352 23.4999 14.8262C24.6094 14.8352 24.8956 15.9031 24.8956 15.9031C25.1376 16.6231 26.2093 16.7045 26.5876 16.0778C26.8375 15.6635 26.7351 15.371 26.6945 15.2286Z" fill="#FEF1B8"/>
</svg>
