<svg width="53" height="50" viewBox="0 0 53 50" fill="none" xmlns="http://www.w3.org/2000/svg">
<path d="M43.1723 21.8874L43.185 21.6601C43.1225 21.6566 43.0613 21.679 43.0159 21.722C42.9704 21.765 42.9446 21.8248 42.9446 21.8874H43.1723ZM43.1726 21.8874L43.1599 22.1147C43.2202 22.118 43.2794 22.0973 43.3244 22.0571C43.3694 22.0168 43.3966 21.9603 43.3999 21.9L43.1726 21.8874ZM40.2961 21.9187L40.4073 22.1173C40.5047 22.0628 40.5482 21.9457 40.51 21.8408C40.4718 21.7359 40.3631 21.6742 40.2535 21.6951L40.2961 21.9187ZM39.764 21.736L39.603 21.897L39.603 21.897L39.764 21.736ZM40.8338 20.9001L40.6624 21.05L40.6624 21.05L40.8338 20.9001ZM40.7684 22.1156L40.5999 21.9625V21.9625L40.7684 22.1156ZM43.6276 21.9064L43.3999 21.8941L43.3999 21.9059L43.6276 21.9064ZM47.7276 22.5027L47.4999 22.4974L47.4999 22.5026L47.7276 22.5027ZM31.1195 27.0388L30.939 27.1776H30.939L31.1195 27.0388ZM31.1611 26.7196L31.0223 26.5391H31.0223L31.1611 26.7196ZM31.4804 26.7612L31.2999 26.9H31.2999L31.4804 26.7612ZM47.2723 22.4946L47.2774 22.267C47.2161 22.2656 47.1569 22.289 47.1131 22.3318C47.0693 22.3747 47.0446 22.4333 47.0446 22.4946H47.2723ZM47.2723 22.4946L47.2672 22.7222C47.3928 22.725 47.4969 22.6256 47.4999 22.5L47.2723 22.4946ZM40.2712 21.4L40.2711 21.6277C40.3969 21.6277 40.4988 21.5258 40.4988 21.4C40.4988 21.2743 40.3969 21.1724 40.2712 21.1724L40.2712 21.4ZM40.2294 21.4L40.2294 21.1724C40.1037 21.1723 40.0018 21.2743 40.0018 21.4C40.0017 21.5257 40.1036 21.6276 40.2294 21.6277L40.2294 21.4ZM44.9951 26.0171L45.1903 26.1343L45.1903 26.1343L44.9951 26.0171ZM49.5737 25.0894L49.4474 25.2788L49.4474 25.2789L49.5737 25.0894ZM44.9896 26.0264L44.8632 26.2158C44.915 26.2504 44.9787 26.2622 45.0395 26.2485C45.1002 26.2349 45.1527 26.197 45.1848 26.1436L44.9896 26.0264ZM44.9893 26.0263L45.1157 25.8369C45.0655 25.8034 45.004 25.7912 44.9447 25.8031C44.8855 25.8149 44.8334 25.8498 44.7999 25.9L44.9893 26.0263ZM45.7173 29.7046L45.5903 29.8936C45.5967 29.8979 45.6033 29.9018 45.6101 29.9055L45.7173 29.7046ZM48.7047 29.0829L48.8999 29.2V29.2L48.7047 29.0829ZM48.1884 26.6988L48.3105 26.5067C48.3035 26.5022 48.2963 26.4982 48.2889 26.4945L48.1884 26.6988ZM46.2976 27.113L46.4952 27.2259L46.2976 27.113ZM46.6171 28.6048L46.4999 28.8L46.6171 28.6048ZM47.4268 28.6119L47.5342 28.8126C47.6371 28.7576 47.6816 28.6336 47.6374 28.5257C47.5932 28.4177 47.4745 28.3606 47.3626 28.3935L47.4268 28.6119ZM47.3868 28.6222L47.3374 28.4H47.3374L47.3868 28.6222ZM46.8642 28.485L47.0163 28.3156C47.0057 28.306 46.9942 28.2975 46.982 28.2901L46.8642 28.485ZM46.5666 28.0302L46.7874 27.975L46.7874 27.975L46.5666 28.0302ZM46.584 27.428L46.368 27.356L46.368 27.356L46.584 27.428ZM47.8262 27.1106L47.9525 26.9212H47.9525L47.8262 27.1106ZM48.0951 28.6171L47.8999 28.5L47.8999 28.5L48.0951 28.6171ZM48.082 28.6366L47.9 28.5L47.8999 28.5L48.082 28.6366ZM46.3828 28.9952L46.4999 28.8L46.3828 28.9952ZM45.9023 26.8871L45.7046 26.7741H45.7046L45.9023 26.8871ZM48.4017 26.2964L48.5036 26.0928L48.5035 26.0928L48.4017 26.2964ZM48.4206 26.307L48.5412 26.1139L48.4206 26.307ZM49.0951 29.3171L48.8999 29.2L49.0951 29.3171ZM45.492 30.1005L45.3841 30.3009L45.492 30.1005ZM45.4736 30.0894L45.3474 30.2788L45.3474 30.2789L45.4736 30.0894ZM44.6075 25.7782L44.7973 25.9044L44.8025 25.8957L44.6075 25.7782ZM49.8202 24.7066L49.694 24.8966L49.7058 24.9034L49.8202 24.7066ZM51.1944 31.1184L50.9999 31L51.1944 31.1184ZM43.3818 32.7946L43.2632 32.9889L43.2636 32.9892L43.3818 32.7946ZM43.3812 32.7943L43.2625 32.9885L43.2626 32.9886L43.3812 32.7943ZM41.9847 31.5129L42.1504 31.3567H42.1504L41.9847 31.5129ZM41.8533 31.3736L41.6878 31.53L41.8533 31.3736ZM39.7633 29.4446L39.6267 29.6268L39.7633 29.4446ZM31.5055 27.1276L31.4999 26.9H31.4999L31.5055 27.1276ZM31.4944 26.6724L31.4999 26.9H31.4999L31.4944 26.6724ZM40.0365 29.0804L39.8999 29.2625H39.8999L40.0365 29.0804ZM42.1841 31.0608L42.0187 31.2172V31.2172L42.1841 31.0608ZM42.2978 31.1812L42.1322 31.3374H42.1322L42.2978 31.1812ZM43.6182 32.4055L43.4995 32.5997L43.5001 32.6001L43.6182 32.4055ZM50.8055 30.8816L50.9999 31L50.8055 30.8816ZM49.5859 25.097L49.4718 25.294L49.4718 25.294L49.5859 25.097ZM47.0652 27.5381L46.9125 27.3693C46.8246 27.4488 46.8124 27.5824 46.8845 27.6765C46.9565 27.7706 47.0887 27.7936 47.1883 27.7296L47.0652 27.5381ZM47.4463 27.4344L47.4182 27.6603C47.5383 27.6753 47.6492 27.5935 47.6704 27.4743C47.6917 27.3551 47.6159 27.2401 47.4979 27.2127L47.4463 27.4344ZM47.2279 27.459L47.2999 27.675L47.2279 27.459ZM47.3765 28.1265L47.3534 28.3529L47.3541 28.353L47.3765 28.1265ZM47.3767 28.1265L47.3542 28.353C47.4643 28.3639 47.5663 28.2941 47.596 28.1875C47.6256 28.0809 47.5744 27.9684 47.4744 27.9209L47.3767 28.1265ZM47.2604 28.0799L47.4 27.9001L47.3999 27.9L47.2604 28.0799ZM47.239 28.061L47.3367 27.8554C47.2367 27.8078 47.1169 27.8392 47.053 27.9297C46.9891 28.0202 46.9996 28.1436 47.0779 28.2219L47.239 28.061ZM47.1723 27.9L47.3929 27.844C47.3646 27.7327 47.2579 27.6599 47.144 27.6741C47.0301 27.6884 46.9446 27.7852 46.9446 27.9H47.1723ZM47.1999 28.0088L47.0001 28.1178C47.055 28.2186 47.1763 28.2627 47.2831 28.2208C47.3899 28.1788 47.4488 28.064 47.4206 27.9528L47.1999 28.0088ZM35.7552 20.8C35.7552 18.2568 37.9461 15.8553 40.9999 15.8553V15.4C37.6999 15.4 35.2999 18 35.2999 20.8H35.7552ZM39.5999 25.0447C37.6644 25.0447 35.7552 23.3618 35.7552 20.8H35.2999C35.2999 23.6001 37.4 25.5 39.5999 25.5V25.0447ZM42.9446 21.9C42.9446 23.4486 41.5485 25.0447 39.5999 25.0447V25.5C41.7999 25.5 43.3999 23.7 43.3999 21.9H42.9446ZM42.9446 21.8874V21.9H43.3999V21.8874H42.9446ZM43.1853 21.6601L43.185 21.6601L43.1596 22.1147L43.1599 22.1147L43.1853 21.6601ZM40.5999 19.2553C41.8425 19.2553 43.0306 20.3396 42.9453 21.8748L43.3999 21.9C43.4999 20.1001 42.1 18.8 40.5999 18.8V19.2553ZM38.5552 21.2C38.5552 20.2395 39.3632 19.2553 40.5999 19.2553V18.8C39.1001 18.8 38.0999 19.9998 38.0999 21.2H38.5552ZM39.9999 22.8447C39.266 22.8447 38.5552 22.2634 38.5552 21.2H38.0999C38.0999 22.5003 39.0002 23.3 39.9999 23.3V22.8447ZM41.1446 21.7C41.1446 22.2666 40.6308 22.8447 39.9999 22.8447V23.3C40.8995 23.3 41.5999 22.5005 41.5999 21.7H41.1446ZM40.3999 20.7553C40.7059 20.7553 41.1446 21.1066 41.1446 21.7H41.5999C41.5999 20.8985 40.9986 20.3 40.3999 20.3V20.7553ZM39.7552 21.3C39.7552 21.1971 39.8135 21.0605 39.9368 20.9443C40.0569 20.831 40.2208 20.7553 40.3999 20.7553V20.3C40.0908 20.3 39.8184 20.4302 39.6245 20.6129C39.4337 20.7927 39.2999 21.0423 39.2999 21.3H39.7552ZM40.0999 21.7447C40.0493 21.7447 39.963 21.713 39.8838 21.628C39.8085 21.5471 39.7552 21.4332 39.7552 21.3H39.2999C39.2999 21.5586 39.4041 21.7809 39.5506 21.9382C39.6932 22.0914 39.8931 22.2 40.0999 22.2V21.7447ZM40.1848 21.7201C40.1529 21.738 40.1243 21.7447 40.0999 21.7447V22.2C40.211 22.2 40.3156 22.1687 40.4073 22.1173L40.1848 21.7201ZM40.1999 22.1553C40.2479 22.1553 40.2942 22.1508 40.3386 22.1424L40.2535 21.6951C40.2371 21.6982 40.2193 21.7 40.1999 21.7V22.1553ZM39.603 21.897C39.7417 22.0356 39.9516 22.1553 40.1999 22.1553V21.7C40.1002 21.7 40.0001 21.6502 39.9249 21.575L39.603 21.897ZM39.3446 21.3C39.3446 21.5483 39.4643 21.7583 39.603 21.897L39.9249 21.575C39.8497 21.4998 39.7999 21.3998 39.7999 21.3H39.3446ZM40.2999 20.4447C39.8203 20.4447 39.3446 20.7823 39.3446 21.3H39.7999C39.7999 21.103 39.9964 20.9 40.2999 20.9V20.4447ZM41.0051 20.7502C40.8155 20.5336 40.5555 20.4447 40.2999 20.4447V20.9C40.4502 20.9 40.5751 20.9502 40.6624 21.05L41.0051 20.7502ZM41.2552 21.5C41.2552 21.2293 41.1876 20.9588 41.0051 20.7502L40.6624 21.05C40.7498 21.1499 40.7999 21.2998 40.7999 21.5H41.2552ZM40.9368 22.2688C41.1203 22.067 41.2552 21.7871 41.2552 21.5H40.7999C40.7999 21.6499 40.725 21.8249 40.5999 21.9625L40.9368 22.2688ZM40.0999 22.6553C40.458 22.6553 40.7479 22.4766 40.9368 22.2688L40.5999 21.9625C40.4747 22.1002 40.2997 22.2 40.0999 22.2V22.6553ZM38.8446 21.3C38.8446 22.0154 39.4138 22.6553 40.0999 22.6553V22.2C39.701 22.2 39.2999 21.8011 39.2999 21.3H38.8446ZM40.3999 19.8447C39.5774 19.8447 38.8446 20.5206 38.8446 21.3H39.2999C39.2999 20.8007 39.7992 20.3 40.3999 20.3V19.8447ZM42.0552 21.7C42.0552 20.6959 41.2963 19.8447 40.3999 19.8447V20.3C40.999 20.3 41.5999 20.899 41.5999 21.7H42.0552ZM39.9999 23.7553C41.1698 23.7553 42.0552 22.7327 42.0552 21.7H41.5999C41.5999 22.5004 40.8996 23.3 39.9999 23.3V23.7553ZM37.6446 21.2C37.6446 22.736 38.7333 23.7553 39.9999 23.7553V23.3C39.0002 23.3 38.0999 22.5003 38.0999 21.2H37.6446ZM40.5999 18.3447C38.8363 18.3447 37.6446 19.7609 37.6446 21.2H38.0999C38.0999 19.9999 39.1001 18.8 40.5999 18.8V18.3447ZM43.8549 21.9186C43.9658 19.857 42.3554 18.3447 40.5999 18.3447V18.8C42.0984 18.8 43.4969 20.0972 43.4002 21.8941L43.8549 21.9186ZM39.5999 25.9553C42.0487 25.9553 43.8512 23.9558 43.8552 21.9068L43.3999 21.9059C43.3964 23.704 41.7975 25.5 39.5999 25.5V25.9553ZM34.8446 20.8C34.8446 23.8381 37.1353 25.9553 39.5999 25.9553V25.5C37.4 25.5 35.2999 23.6001 35.2999 20.8H34.8446ZM40.9999 14.9447C37.4539 14.9447 34.8446 17.7432 34.8446 20.8H35.2999C35.2999 18 37.6999 15.4 40.9999 15.4V14.9447ZM47.9552 22.5081C48.0598 18.0523 44.5533 14.9447 40.9999 14.9447V15.4C44.2992 15.4 47.5985 18.2988 47.5 22.4974L47.9552 22.5081ZM38.7999 31.2553C44.1538 31.2553 47.9536 26.9498 47.9552 22.5028L47.4999 22.5026C47.4984 26.7017 43.8988 30.8 38.7999 30.8V31.2553ZM30.939 27.1776C33.0123 29.8729 35.4387 31.2553 38.7999 31.2553V30.8C35.5999 30.8 33.2999 29.5 31.2999 26.9L30.939 27.1776ZM31.0223 26.5391C30.823 26.6924 30.7857 26.9783 30.939 27.1776L31.2999 26.9L31.2999 26.9L31.0223 26.5391ZM31.6608 26.6224C31.5075 26.4231 31.2216 26.3858 31.0223 26.5391L31.2999 26.9H31.2999L31.6608 26.6224ZM38.7999 30.3447C37.2725 30.3447 35.9709 30.0369 34.8133 29.4228C33.6545 28.808 32.6281 27.8799 31.6608 26.6224L31.2999 26.9C32.296 28.1949 33.3697 29.1723 34.5999 29.825C35.8315 30.4784 37.208 30.8 38.7999 30.8V30.3447ZM47.0446 22.5C47.0446 26.452 43.645 30.3447 38.7999 30.3447V30.8C43.8999 30.8 47.4999 26.7 47.4999 22.5H47.0446ZM47.0446 22.4946V22.5H47.4999V22.4946H47.0446ZM47.2774 22.267L47.2774 22.267L47.2672 22.7222L47.2672 22.7222L47.2774 22.267ZM40.9999 15.8553C44.0458 15.8553 47.1386 18.5464 47.0448 22.4892L47.4999 22.5C47.5999 18.3 44.2999 15.4 40.9999 15.4V15.8553ZM40.2712 21.1724L40.2294 21.1724L40.2294 21.6277L40.2711 21.6277L40.2712 21.1724ZM40.2294 21.6277L40.2711 21.6277L40.2712 21.1724L40.2294 21.1724L40.2294 21.6277ZM40.2294 21.6277C40.2422 21.6277 40.2561 21.6277 40.2711 21.6277L40.2712 21.1724C40.2561 21.1724 40.2423 21.1724 40.2294 21.1724L40.2294 21.6277ZM40.2294 21.6277L40.2711 21.6277L40.2712 21.1724L40.2294 21.1724L40.2294 21.6277ZM45.1903 26.1343C45.9628 24.8468 47.8736 24.2297 49.4474 25.2788L49.6999 24.9C47.9 23.7001 45.7 24.3999 44.7999 25.9L45.1903 26.1343ZM45.1848 26.1436L45.1903 26.1343L44.7999 25.9L44.7944 25.9093L45.1848 26.1436ZM44.863 26.2157L44.8632 26.2158L45.1159 25.8371L45.1157 25.8369L44.863 26.2157ZM45.8444 29.5157C44.8278 28.8322 44.3404 27.4101 45.1788 26.1526L44.7999 25.9C43.8029 27.3956 44.3963 29.0907 45.5903 29.8936L45.8444 29.5157ZM48.5095 28.9658C48.0518 29.7286 46.9359 30.0972 45.8245 29.5038L45.6101 29.9055C46.9076 30.5982 48.3018 30.197 48.8999 29.2L48.5095 28.9658ZM48.0663 26.8909C48.6618 27.2693 48.9733 28.1928 48.5095 28.9658L48.8999 29.2C49.4973 28.2045 49.1035 27.0106 48.3105 26.5067L48.0663 26.8909ZM46.4952 27.2259C46.7436 26.7912 47.4461 26.5872 48.0878 26.903L48.2889 26.4945C47.4898 26.1012 46.4975 26.3043 46.0999 27L46.4952 27.2259ZM46.7342 28.4096C46.4413 28.2339 46.2211 27.7056 46.4952 27.2259L46.0999 27C45.7 27.6999 45.9998 28.4999 46.4999 28.8L46.7342 28.4096ZM47.3193 28.4113C47.1347 28.5101 46.9165 28.519 46.7342 28.4096L46.4999 28.8C46.8398 29.0039 47.2304 28.9753 47.5342 28.8126L47.3193 28.4113ZM47.4362 28.8445C47.4546 28.8404 47.4729 28.8357 47.4909 28.8304L47.3626 28.3935C47.3542 28.396 47.3458 28.3981 47.3374 28.4L47.4362 28.8445ZM46.7122 28.6544C46.9276 28.8477 47.1988 28.8972 47.4362 28.8445L47.3374 28.4C47.2301 28.4239 47.1125 28.4019 47.0163 28.3156L46.7122 28.6544ZM46.3457 28.0854C46.3932 28.2752 46.5056 28.5342 46.7465 28.6798L46.982 28.2901C46.8908 28.235 46.8224 28.1147 46.7874 27.975L46.3457 28.0854ZM46.368 27.356C46.2869 27.5993 46.2903 27.8636 46.3457 28.0854L46.7874 27.975C46.7499 27.825 46.7499 27.65 46.7999 27.5L46.368 27.356ZM46.4211 27.2475C46.3986 27.2811 46.3808 27.3176 46.368 27.356L46.7999 27.5L46.7999 27.5L46.4211 27.2475ZM47.9525 26.9212C47.4218 26.5674 46.7458 26.7604 46.4211 27.2475L46.7999 27.5C47.0005 27.1992 47.4007 27.1005 47.6999 27.3L47.9525 26.9212ZM48.2903 28.7343C48.7198 28.0186 48.4476 27.2512 47.9525 26.9212L47.6999 27.3C48.0001 27.5001 48.1998 28.0002 47.8999 28.5L48.2903 28.7343ZM48.2641 28.7732C48.2736 28.7607 48.2823 28.7477 48.2904 28.7342L47.8999 28.5L47.9 28.5L48.2641 28.7732ZM46.2657 29.1904C47.0016 29.632 47.8508 29.3244 48.2642 28.7732L47.8999 28.5C47.5993 28.9008 46.9992 29.0996 46.4999 28.8L46.2657 29.1904ZM45.7046 26.7741C45.1786 27.6947 45.5588 28.7663 46.2657 29.1904L46.4999 28.8C45.9998 28.4999 45.7 27.6999 46.0999 27L45.7046 26.7741ZM48.5035 26.0928C47.5496 25.6158 46.2562 25.8088 45.7046 26.7741L46.0999 27C46.4994 26.3009 47.4989 26.0995 48.2999 26.5L48.5035 26.0928ZM48.5412 26.1139C48.529 26.1063 48.5164 26.0992 48.5036 26.0928L48.2999 26.5L48.2999 26.5L48.5412 26.1139ZM49.2903 29.4343C50.0247 28.2103 49.5406 26.7385 48.5412 26.1139L48.2999 26.5C49.1001 27.0001 49.4998 28.2002 48.8999 29.2L49.2903 29.4343ZM45.3841 30.3009C46.869 31.1005 48.5488 30.6702 49.2903 29.4343L48.8999 29.2C48.3001 30.1997 46.9003 30.6002 45.5999 29.9L45.3841 30.3009ZM45.3474 30.2789C45.3592 30.2868 45.3715 30.2941 45.3841 30.3009L45.5999 29.9L45.5999 29.9L45.3474 30.2789ZM44.4179 25.6523C43.2624 27.391 43.9715 29.3616 45.3474 30.2788L45.5999 29.9C44.4007 29.1005 43.8013 27.4028 44.7971 25.9042L44.4179 25.6523ZM49.9462 24.517C47.9228 23.1731 45.4406 23.9537 44.4125 25.6608L44.8025 25.8957C45.7033 24.4001 47.8972 23.7027 49.6943 24.8962L49.9462 24.517ZM51.3888 31.2367C52.913 28.7327 52.0623 25.7468 49.9346 24.5098L49.7058 24.9034C51.6015 26.0055 52.3985 28.7023 50.9999 31L51.3888 31.2367ZM43.2636 32.9892C46.2762 34.8183 49.8569 33.7535 51.3888 31.2367L50.9999 31C49.5999 33.3 46.2999 34.3 43.4999 32.6L43.2636 32.9892ZM43.2626 32.9886L43.2632 32.9889L43.5004 32.6003L43.4998 32.5999L43.2626 32.9886ZM41.8191 31.6691C42.3146 32.1946 42.7863 32.6975 43.2625 32.9885L43.4999 32.6C43.0874 32.3479 42.6613 31.8986 42.1504 31.3567L41.8191 31.6691ZM41.6878 31.53C41.732 31.5767 41.7757 31.623 41.8191 31.6691L42.1504 31.3567C42.107 31.3107 42.063 31.2641 42.0187 31.2172L41.6878 31.53ZM39.6267 29.6268C40.4688 30.2583 41.1216 30.9311 41.6878 31.53L42.0187 31.2172C41.4499 30.6156 40.7749 29.9188 39.8999 29.2625L39.6267 29.6268ZM31.511 27.3552C35.5082 27.2577 37.9582 28.3753 39.6267 29.6268L39.8999 29.2625C38.1499 27.95 35.5999 26.8 31.4999 26.9L31.511 27.3552ZM31.0448 26.9111C31.0509 27.1625 31.2596 27.3613 31.511 27.3552L31.4999 26.9H31.4999L31.0448 26.9111ZM31.4888 26.4448C31.2374 26.451 31.0386 26.6597 31.0448 26.9111L31.4999 26.9H31.4999L31.4888 26.4448ZM40.1731 28.8983C38.3417 27.5247 35.6917 26.3423 31.4888 26.4448L31.4999 26.9C35.5999 26.8 38.1499 27.95 39.8999 29.2625L40.1731 28.8983ZM42.3495 30.9044C41.7783 30.3002 41.0811 29.5792 40.1731 28.8983L39.8999 29.2625C40.7749 29.9188 41.4499 30.6156 42.0187 31.2172L42.3495 30.9044ZM42.4633 31.0249C42.426 30.9854 42.3881 30.9452 42.3495 30.9044L42.0187 31.2172C42.0571 31.2579 42.0949 31.2979 42.1322 31.3374L42.4633 31.0249ZM43.737 32.2113C43.3796 31.9928 42.9965 31.5897 42.4633 31.0249L42.1322 31.3374C42.6477 31.8835 43.0779 32.342 43.4995 32.5997L43.737 32.2113ZM50.611 30.7633C49.343 32.8465 46.3237 33.7817 43.7364 32.2109L43.5001 32.6001C46.3001 34.3 49.6 33.3 50.9999 31L50.611 30.7633ZM49.4718 25.294C51.1395 26.2595 51.8851 28.6701 50.611 30.7633L50.9999 31C52.4 28.6999 51.5998 26 49.6999 24.9L49.4718 25.294ZM49.4474 25.2789C49.4554 25.2842 49.4635 25.2892 49.4718 25.294L49.6999 24.9C49.6999 24.9 49.6999 24.9 49.6999 24.9L49.4474 25.2789ZM47.2179 27.7069C47.2723 27.6577 47.3399 27.6433 47.3947 27.6561L47.4979 27.2127C47.2924 27.1648 47.0733 27.2237 46.9125 27.3693L47.2179 27.7069ZM47.1559 27.2431C47.0782 27.269 47.0057 27.3057 46.9421 27.3466L47.1883 27.7296C47.2247 27.7062 47.263 27.6873 47.2999 27.675L47.1559 27.2431ZM47.4745 27.2085C47.3463 27.1925 47.2313 27.218 47.1559 27.2431L47.2999 27.675C47.3356 27.6631 47.3792 27.6554 47.4182 27.6603L47.4745 27.2085ZM47.3541 28.353L47.3542 28.353L47.3991 27.8999L47.3989 27.8999L47.3541 28.353ZM47.1208 28.2598C47.1862 28.3105 47.2662 28.344 47.3534 28.3529L47.3997 27.9L47.4 27.9001L47.1208 28.2598ZM47.0779 28.2219C47.0913 28.2353 47.1057 28.248 47.1209 28.2598L47.3999 27.9L47.4 27.9001L47.0779 28.2219ZM47.1412 28.2666L47.2789 28.3321L47.4744 27.9209L47.3367 27.8554L47.1412 28.2666ZM46.9446 27.9C46.9446 27.9785 46.9647 28.0529 47.0001 28.1178L47.3998 27.8999L47.3999 27.9H46.9446ZM46.9516 27.9561L46.9793 28.0649L47.4206 27.9528L47.3929 27.844L46.9516 27.9561Z" fill="#C2AB51"/>
<path d="M17.0003 46.3001C17.3003 47.0001 17.0003 47.8001 16.3003 48.1001L13.0003 49.6001C12.3003 49.9001 11.5003 49.6001 11.2003 48.9001L7.30031 40.5001C7.00031 39.8001 7.30031 39.0001 7.90031 38.7001L11.2003 37.2001C11.9003 36.9001 12.7003 37.2001 13.0003 37.9001L17.0003 46.3001Z" fill="#171300"/>
<path d="M31.8998 25.4C30.5998 24.7 29.0998 25.1 28.2998 26.4C27.5998 27.6 27.9998 29.2 29.2998 29.9C30.4998 30.6 32.1998 30.2 32.8998 29C33.5998 27.7 33.0998 26.1 31.8998 25.4Z" fill="#413813"/>
<path d="M11.9004 24.8L14.7004 35L28.5004 31.3L24.0004 15.5C22.3004 18.9 19.8004 21.8 16.4004 23.5C14.9004 24.2 13.4004 24.6 11.9004 24.8Z" fill="#FEF1B8"/>
<path d="M12.3 24.8L4.90005 26.8C2.00005 27.6 0.200047 30.6 1.00005 33.4L2.00005 37C2.80005 39.9 5.70005 41.6 8.60005 40.8L16.1 38.8L12.3 24.8Z" fill="#413813"/>
<path d="M32.1001 41.6001C31.4001 41.8001 30.7001 41.3001 30.5001 40.5001L23.8001 16.3001C23.6001 15.6001 24.0001 14.8001 24.6001 14.6001L25.7001 14.3001C26.4001 14.1001 27.1001 14.6001 27.3001 15.3001L34.0001 39.6001C34.2001 40.4001 33.8001 41.1001 33.2001 41.3001L32.1001 41.6001Z" fill="#413813"/>
<path d="M30.9998 40.7L27.4998 28L13.7998 31.7L15.6998 38.7C17.0998 38.1 18.6998 37.9 20.3998 37.8C24.1998 37.6 27.7998 38.6 30.9998 40.7Z" fill="#FDE577"/>
<path d="M14.2 31.6001L1.5 35.0001L2 37.0001C2.8 39.9001 5.7 41.6001 8.6 40.8001L16.1 38.8001L14.2 31.6001Z" fill="#171300"/>
<path d="M33.9996 39.5001L30.5996 27.2001L27.0996 28.1001L30.4996 40.3001C30.6996 41.1001 31.4996 41.7001 32.0996 41.5001L33.1996 41.2001C33.7996 41.1001 34.1996 40.2001 33.9996 39.5001Z" fill="#171300"/>
</svg>
