<svg width="16" height="16" viewBox="0 0 16 16" fill="none" xmlns="http://www.w3.org/2000/svg">
<path d="M5.53327 14.4904H10.4666C11.2826 14.4904 11.96 13.8771 12.0452 13.0718L12.7921 5.8291H3.20801L3.95996 13.0718C4.03997 13.8771 4.71725 14.4904 5.53327 14.4904ZM6.6373 9.00778C6.45059 8.82643 6.45059 8.52777 6.6373 8.34645C6.81862 8.1651 7.11191 8.1651 7.29863 8.34645L8.00267 9.05046L8.70664 8.34645C8.88796 8.1651 9.18132 8.1651 9.36797 8.34645C9.54928 8.52777 9.54928 8.82643 9.36797 9.00778L8.664 9.71178L9.36797 10.4158C9.54928 10.5971 9.54928 10.8958 9.36797 11.0771C9.18643 11.2586 8.89491 11.2653 8.70664 11.0771L8.00267 10.3731L7.29863 11.0771C7.11723 11.2586 6.82544 11.2653 6.6373 11.0771C6.45059 10.8958 6.45059 10.5971 6.6373 10.4158L7.34134 9.71178L6.6373 9.00778Z" fill="#008046"/>
<path d="M2.42396 4.7626C12.8693 4.7626 7.56869 4.7626 13.5759 4.7626C13.8746 4.7626 14.1092 4.52259 14.1092 4.22926C14.1092 3.93594 13.8746 3.69593 13.5759 3.69593C13.4797 3.69593 10.3116 3.69593 10.3653 3.69593V2.78926C10.3653 2.08525 9.7946 1.50928 9.09063 1.50928H7.05866C6.35462 1.50928 5.78392 2.08525 5.78392 2.78926V3.69593C5.65977 3.69593 2.27025 3.69593 2.42396 3.69593C2.13066 3.69593 1.89062 3.93594 1.89062 4.22926C1.89062 4.52259 2.13066 4.7626 2.42396 4.7626ZM6.85059 2.78926C6.85059 2.67194 6.94134 2.57594 7.05866 2.57594H9.09063C9.20801 2.57594 9.29863 2.67194 9.29863 2.78926V3.69593H6.85059V2.78926Z" fill="#008046"/>
</svg>
