<svg width="8" height="8" viewBox="0 0 8 8" fill="none" xmlns="http://www.w3.org/2000/svg">
<path fill-rule="evenodd" clip-rule="evenodd" d="M7.63952 0.254901C7.29965 -0.0849668 6.74861 -0.0849669 6.40875 0.254901L3.94721 2.71644L1.59125 0.360484C1.25139 0.0206167 0.700352 0.0206168 0.360484 0.360484C0.0206169 0.700352 0.0206167 1.25139 0.360484 1.59125L2.71644 3.94721L0.254901 6.40875C-0.0849669 6.74861 -0.0849668 7.29965 0.254901 7.63952C0.594768 7.97938 1.1458 7.97938 1.48567 7.63952L3.94721 5.17798L6.51433 7.7451C6.8542 8.08497 7.40523 8.08497 7.7451 7.7451C8.08497 7.40523 8.08497 6.8542 7.7451 6.51433L5.17798 3.94721L7.63952 1.48567C7.97938 1.1458 7.97938 0.594768 7.63952 0.254901Z" fill="#A63A33"/>
</svg>
