<svg width="10" height="10" viewBox="0 0 10 10" fill="none" xmlns="http://www.w3.org/2000/svg">
<path d="M9.52001 3.43907L9.07596 2.99508C9.40399 2.41908 9.316 1.65909 8.82401 1.16708C8.33197 0.675085 7.58397 0.595081 7.00399 0.91908L6.55995 0.475085C6.19999 0.115076 5.56796 0.115076 5.208 0.475085L0.479968 5.20309C0.107996 5.57509 0.107996 6.17909 0.479968 6.55109L0.928015 6.99908C0.595984 7.57909 0.683972 8.3351 1.17596 8.82709C1.67543 9.32655 2.44169 9.38654 2.99598 9.06708L3.44398 9.51508C3.80184 9.87299 4.39891 9.9039 4.79598 9.51508L9.52001 4.79108C9.89198 4.41908 9.89198 3.81508 9.52001 3.43907ZM3.23959 5.90455C2.9076 5.90455 2.63959 5.63256 2.63959 5.30455C2.63959 4.97255 2.9076 4.70455 3.23959 4.70455C3.56757 4.70455 3.83959 4.97255 3.83959 5.30455C3.83959 5.63256 3.56757 5.90455 3.23959 5.90455ZM5.67196 6.82709C5.46415 6.90265 5.23124 6.79469 5.15995 6.59108L4.09198 3.67909C4.016 3.47509 4.12001 3.24308 4.32801 3.16708C4.53597 3.09108 4.76395 3.19908 4.83998 3.40309L5.908 6.31508C5.98397 6.51908 5.87997 6.75109 5.67196 6.82709ZM7.25995 5.03109C7.07997 5.30709 6.708 5.38707 6.42801 5.20709C6.15199 5.02308 6.07196 4.65109 6.25594 4.37509C6.43597 4.09908 6.808 4.01908 7.08397 4.19908C7.36395 4.37909 7.43998 4.75109 7.25995 5.03109Z" fill="#333333"/>
</svg>
