<svg width="10" height="10" viewBox="0 0 10 10" fill="none" xmlns="http://www.w3.org/2000/svg">
<path d="M9.52007 3.43907L9.07603 2.99508C9.40405 2.41908 9.31606 1.65909 8.82407 1.16708C8.33203 0.675085 7.58403 0.595081 7.00405 0.91908L6.56001 0.475085C6.20005 0.115076 5.56802 0.115076 5.20806 0.475085L0.480029 5.20309C0.108057 5.57509 0.108057 6.17909 0.480029 6.55109L0.928076 6.99908C0.596045 7.57909 0.684033 8.3351 1.17603 8.82709C1.67549 9.32655 2.44175 9.38654 2.99604 9.06708L3.44404 9.51508C3.8019 9.87299 4.39897 9.9039 4.79604 9.51508L9.52007 4.79108C9.89204 4.41908 9.89204 3.81508 9.52007 3.43907ZM3.23965 5.90455C2.90767 5.90455 2.63965 5.63256 2.63965 5.30455C2.63965 4.97255 2.90767 4.70455 3.23965 4.70455C3.56763 4.70455 3.83965 4.97255 3.83965 5.30455C3.83965 5.63256 3.56763 5.90455 3.23965 5.90455ZM5.67202 6.82709C5.46421 6.90265 5.2313 6.79469 5.16001 6.59108L4.09204 3.67909C4.01606 3.47509 4.12007 3.24308 4.32808 3.16708C4.53604 3.09108 4.76401 3.19908 4.84004 3.40309L5.90806 6.31508C5.98403 6.51908 5.88003 6.75109 5.67202 6.82709ZM7.26001 5.03109C7.08003 5.30709 6.70806 5.38707 6.42808 5.20709C6.15205 5.02308 6.07202 4.65109 6.25601 4.37509C6.43603 4.09908 6.80806 4.01908 7.08403 4.19908C7.36401 4.37909 7.44004 4.75109 7.26001 5.03109Z" fill="#999999"/>
</svg>
