<svg width="117" height="33" viewBox="0 0 117 33" fill="none" xmlns="http://www.w3.org/2000/svg">
<g clip-path="url(#clip0_2989_1035)">
<path fill-rule="evenodd" clip-rule="evenodd" d="M87.964 18.8757C88.2638 12.3525 93.9443 7.28999 100.603 7.58369C107.309 7.87739 112.477 13.4423 112.09 19.9269C111.79 26.4502 106.11 31.5126 99.4512 31.2189C97.7865 31.1803 96.2086 30.7552 94.7964 30.0905L90.0153 32.5561L91.7194 27.996C89.25 25.7391 87.7983 22.4311 87.964 18.8757ZM102.489 18.1183C102.915 19.3318 104.792 19.5018 105.479 18.412C105.905 17.7009 105.731 17.1986 105.652 16.9512C105.652 16.9512 104.24 12.9785 100.019 12.9785C95.7904 12.9785 94.3861 16.9512 94.3861 16.9512C94.2993 17.1986 94.1336 17.7009 94.5597 18.412C95.2461 19.5018 97.1238 19.3318 97.5498 18.1183C97.5498 18.1183 98.0626 16.2788 100.027 16.2788C101.976 16.3252 102.489 18.1183 102.489 18.1183Z" fill="#FAB221"/>
<path fill-rule="evenodd" clip-rule="evenodd" d="M0.00292969 30.8402C0.00292969 31.76 0.728771 32.471 1.66763 32.471H5.1706C9.1864 32.471 12.1292 29.7504 12.1292 26.025V25.9864C12.1292 22.261 9.22584 19.5868 5.1706 19.5868H1.66763C0.728771 19.5868 0.00292969 20.2979 0.00292969 21.2176V30.8402V30.8402ZM8.67357 26.025C8.67357 28.0346 7.26134 29.4103 5.1706 29.4103H3.33233V22.547H5.1706C7.26134 22.547 8.67357 23.9305 8.67357 25.9787V26.025Z" fill="#302512"/>
<path fill-rule="evenodd" clip-rule="evenodd" d="M13.0283 26.0714C13.0283 29.8354 16.0185 32.6796 19.9869 32.6796C23.9159 32.6796 26.9929 29.7504 26.9929 26.025V25.9863C26.9929 22.2223 24.0027 19.3781 20.0343 19.3781C16.1053 19.3781 13.0283 22.3073 13.0283 26.0327V26.0714V26.0714ZM16.5313 25.9863C16.5313 23.9382 18.0224 22.431 19.9869 22.431C21.9909 22.431 23.4899 23.9768 23.4899 26.025V26.0636C23.4899 28.1118 21.9988 29.619 20.0343 29.619C18.0303 29.619 16.5313 28.0732 16.5313 26.025V25.9863Z" fill="#302512"/>
<path fill-rule="evenodd" clip-rule="evenodd" d="M28.3965 30.9251C28.3965 31.8449 29.1223 32.5559 30.0612 32.5559C31 32.5559 31.7653 31.8449 31.7653 30.9638V28.7919H33.5563C36.8462 28.7919 38.937 26.9911 38.937 24.1932V24.1545C38.937 21.3953 36.933 19.5944 33.8166 19.5944H30.0612C29.1223 19.5944 28.3965 20.3055 28.3965 21.2252V30.9251ZM35.5287 24.1854C35.5287 25.1438 34.8028 25.7776 33.6509 25.7776V25.739H31.7259V22.5624H33.5642C34.29 22.5624 35.5287 22.771 35.5287 24.1545V24.1854Z" fill="#302512"/>
<path fill-rule="evenodd" clip-rule="evenodd" d="M39.9717 30.9251C39.9717 31.8449 40.6975 32.5559 41.6364 32.5559C42.5752 32.5559 43.3011 31.8449 43.3405 30.9638V28.7919H45.1315C48.4214 28.7919 50.5122 26.9911 50.5122 24.1932V24.1545C50.5122 21.3953 48.5082 19.5944 45.3918 19.5944H41.6364C40.6975 19.5944 39.9717 20.3055 39.9717 21.2252V30.9251V30.9251ZM47.1039 24.1854C47.1039 25.1438 46.378 25.7776 45.2261 25.7776V25.739H43.3011V22.5624H45.1394C45.8652 22.5624 47.1039 22.771 47.1039 24.1545V24.1854Z" fill="#302512"/>
<path fill-rule="evenodd" clip-rule="evenodd" d="M53.1618 32.471C52.2229 32.471 51.4971 31.76 51.4971 30.8402V21.094C51.4971 20.1742 52.2229 19.4631 53.1618 19.4631C54.1006 19.4631 54.8265 20.1742 54.8265 21.094V29.4181H59.6549C60.507 29.4181 61.1934 30.0905 61.1934 30.9252C61.1934 31.76 60.507 32.4324 59.6549 32.4324H53.1618V32.471V32.471Z" fill="#302512"/>
<path fill-rule="evenodd" clip-rule="evenodd" d="M63.8385 32.471C62.8997 32.471 62.1738 31.76 62.1738 30.8402V21.2176C62.1738 20.2979 62.8997 19.5868 63.8385 19.5868H70.8445C71.6965 19.5868 72.3829 20.2592 72.3829 21.0939C72.3829 21.9287 71.6965 22.5547 70.8445 22.5547H65.5506V24.4792H70.0318C70.8839 24.4792 71.5703 25.1517 71.5703 25.9864C71.5703 26.8211 70.8839 27.4935 70.0318 27.4935H65.5506V29.5031H70.9707C71.8228 29.5031 72.5092 30.1755 72.5092 31.0102C72.5092 31.845 71.8228 32.471 70.9707 32.471H63.8385Z" fill="#302512"/>
<path fill-rule="evenodd" clip-rule="evenodd" d="M81.5178 31.76C81.9439 32.301 82.4567 32.556 83.0958 32.556C83.861 32.556 84.721 31.9686 84.6737 31.0489C84.6737 30.5079 84.4212 30.1678 84.1608 29.8354L82.4961 27.8259C84.0346 27.0762 84.8472 25.7777 84.8472 23.9769V23.9382C84.8472 22.7248 84.4607 21.6813 83.6954 20.9239C82.796 20.0428 81.4311 19.5868 79.8137 19.5868H75.4586C74.5198 19.5868 73.7939 20.2979 73.7939 21.2176V30.9639C73.7939 31.8836 74.5198 32.5947 75.4586 32.5947C76.3975 32.5947 77.1233 31.8836 77.1233 30.9639V28.537H78.9143L81.5178 31.76ZM81.4784 24.0619C81.4784 24.9816 80.792 25.5227 79.6401 25.5227H77.1233V22.5547H79.6007C80.4527 22.5547 81.4784 22.8021 81.4784 24.0155V24.0619Z" fill="#302512"/>
<path fill-rule="evenodd" clip-rule="evenodd" d="M93.8022 9.1031C93.8022 9.1031 95.0543 6.12889 97.2565 4.31464C100.788 1.40191 106.322 0.739073 110.434 3.75729C116.348 8.09953 116.364 12.7767 115.707 19.0781C115.57 20.3924 115.068 23.7706 115.068 23.7706L112.799 23.3564C112.799 23.3564 113.42 18.716 111.235 15.9877C104.401 6.12313 93.8022 9.1031 93.8022 9.1031Z" fill="#B5292A"/>
<path opacity="0.2" fill-rule="evenodd" clip-rule="evenodd" d="M110.98 11.176C112.399 11.3162 112.014 7.74433 112.014 7.74433C112.014 7.74433 113.566 12.156 113.793 14.6426C114.02 17.1293 113.652 19.6189 114.093 20.7247C114.312 21.3313 114.68 21.8774 115.166 22.3148L115.065 22.9053L112.784 22.5797C112.784 22.5797 113.202 18.058 111.025 15.3928C109.534 12.6774 105.498 9.65017 110.98 11.176Z" fill="#181714"/>
<path opacity="0.2" fill-rule="evenodd" clip-rule="evenodd" d="M113.296 11.9902C112.959 10.8514 112.097 7.95483 112.097 7.95483C112.097 7.95483 112.269 8.86163 112.467 9.75356C112.664 10.6455 112.579 12.4849 112.579 12.4849C112.579 12.4849 112.532 13.6022 112.557 14.9867C112.991 15.6621 113.624 16.4427 113.879 17.1984C113.949 15.8735 113.824 13.7626 113.296 11.9902Z" fill="#181714"/>
<path d="M113.587 26.1006C114.794 26.5055 116.099 25.9013 116.501 24.7511C116.903 23.6009 116.25 22.3404 115.043 21.9355C113.836 21.5307 112.532 22.1349 112.13 23.2851C111.728 24.4352 112.38 25.6958 113.587 26.1006Z" fill="#F6F6F6"/>
<path opacity="0.2" fill-rule="evenodd" clip-rule="evenodd" d="M116.208 22.7919C116.413 23.0756 116.546 23.4019 116.596 23.7442C116.646 24.0864 116.612 24.4348 116.496 24.7608C116.303 25.2595 115.933 25.6739 115.452 25.9295C114.972 26.1852 114.412 26.2653 113.873 26.1555C113.334 26.0458 112.853 25.7533 112.514 25.3306C112.175 24.908 112.002 24.3828 112.025 23.8495C112.309 24.2481 112.717 24.548 113.189 24.705C113.762 24.9022 114.39 24.8708 114.937 24.6178C115.483 24.3647 115.902 23.9107 116.102 23.3555C116.162 23.1731 116.198 22.9836 116.208 22.7919Z" fill="#181714"/>
<path fill-rule="evenodd" clip-rule="evenodd" d="M95.036 5.51196C93.8252 5.63099 93.141 5.49207 92.8837 6.6735V6.6735C92.5962 7.99417 93.7515 10.005 95.0979 9.80948C95.83 9.70317 96.7014 9.57793 97.5744 9.61611C102.444 9.8291 104.752 10.7698 108.184 13.9184C108.298 14.0231 108.406 14.133 108.507 14.2472C110.587 16.5921 113.635 17.9649 113.228 14.8556V14.8556C112.314 7.87703 100.859 4.9395 95.036 5.51196Z" fill="#F6F6F6"/>
<path d="M106.5 12.0002C106.855 12.2366 108.235 13.6415 109.714 14.6107C111.189 15.577 112.5 14.2631 112.5 12.5L112.874 13.0609C113.283 13.6733 113.5 14.3928 113.5 15.1288C113.5 15.6989 113.366 16.2773 113.006 16.7193C111.755 18.2554 110.696 17.1964 108.001 14.501L108 14.5C106 12.5 105.5 11 101 10L101.496 10L101.502 10C101.578 10.0008 103.558 10.0387 106.5 12.0002Z" fill="#D9D9D9"/>
</g>
<defs>
<clipPath id="clip0_2989_1035">
<rect width="117" height="33" fill="white"/>
</clipPath>
</defs>
</svg>
