<svg width="16" height="16" viewBox="0 0 16 16" fill="none" xmlns="http://www.w3.org/2000/svg">
<path d="M14.4001 9.59528V13.0338C14.4001 13.6796 13.8823 14.1974 13.2365 14.1974H2.76373C2.12375 14.1974 1.6001 13.6796 1.6001 13.0338V9.59528C1.6001 8.94947 2.12375 8.43164 2.76373 8.43164C3.40954 8.43164 3.92737 8.94947 3.92737 9.59528V11.8702H12.0728V9.59528C12.0728 8.94947 12.5965 8.43164 13.2365 8.43164C13.8823 8.43164 14.4001 8.94947 14.4001 9.59528Z" fill="#008046"/>
<path d="M11.12 6.55475L8.41063 9.79206C8.19908 10.0481 7.80079 10.0481 7.58928 9.79206L4.87997 6.55475C4.74663 6.39473 4.71464 6.17074 4.80529 5.98408C4.89061 5.7974 5.08264 5.67474 5.28531 5.67474H6.29328V2.33607C6.29328 2.04274 6.52795 1.80273 6.82661 1.80273H9.16796C9.46662 1.80273 9.70129 2.04274 9.70129 2.33607V5.67474H10.7146C10.9226 5.67474 11.1093 5.7974 11.1946 5.98408C11.2853 6.17074 11.2533 6.39473 11.12 6.55475Z" fill="#008046"/>
</svg>
