<svg width="53" height="51" viewBox="0 0 53 51" fill="none" xmlns="http://www.w3.org/2000/svg">
<path fill-rule="evenodd" clip-rule="evenodd" d="M8 49H48V9H8V49Z" fill="#FEEC9D"/>
<path fill-rule="evenodd" clip-rule="evenodd" d="M14.0001 36L20.6945 26.9775L23.0589 29.75L32.1898 19.4514L42.8236 36.0588L14.0001 36ZM13.1699 20.5364C13.1699 19.1025 14.3036 17.9417 15.7025 17.9417C17.1002 17.9417 18.2338 19.1025 18.2338 20.5364C18.2338 21.9689 17.1002 23.1311 15.7025 23.1311C14.3036 23.1311 13.1699 21.9689 13.1699 20.5364Z" fill="#301F00"/>
<path fill-rule="evenodd" clip-rule="evenodd" d="M8 49H48L8 9V49Z" fill="#302100" fill-opacity="0.1"/>
<path fill-rule="evenodd" clip-rule="evenodd" d="M16 49H30L18 37L16 49Z" fill="#302100" fill-opacity="0.1"/>
<path fill-rule="evenodd" clip-rule="evenodd" d="M4 14.0588H5.29412V11.4706H4V14.0588ZM4 19.2353H5.29412V16.6471H4V19.2353ZM4 24.4118H5.29412V21.8235H4V24.4118ZM4 29.5882H5.29412V27H4V29.5882ZM4 34.7647H5.29412V32.1765H4V34.7647ZM4 39.9412H5.29412V37.3529H4V39.9412ZM41.5294 6.29412H44.1176V8.88235H45.4118V5H41.5294V6.29412ZM36.3529 6.29412H38.9412V5H36.3529V6.29412ZM31.1765 6.29412H33.7647V5H31.1765V6.29412ZM26 6.29412H28.5882V5H26V6.29412ZM20.8235 6.29412H23.4118V5H20.8235V6.29412ZM15.6471 6.29412H18.2353V5H15.6471V6.29412ZM10.4706 6.29412H13.0588V5H10.4706V6.29412ZM5.29412 6.29412H7.88235V5H4V8.88235H5.29412V6.29412ZM5.29412 45.1176V42.5294H4V46.4118H7.88235V45.1176H5.29412Z" fill="#302100"/>
<path d="M5.78693 49.1741L2.30231 45.6895C0.54798 43.9352 0.54798 41.0799 2.30231 39.3256L3.57015 38.0577L3.57015 35.802C3.57015 34.5519 4.58768 33.5343 5.83785 33.5343C6.31373 33.5351 6.76769 33.6807 7.14811 33.9508C7.35247 32.9093 8.27241 32.1208 9.37338 32.1201C10.369 32.1201 11.2154 32.7643 11.5202 33.656C11.9041 33.3583 12.3857 33.1808 12.9089 33.1808C14.1216 33.1801 15.1151 34.1368 15.1738 35.3368C15.5457 35.085 15.9848 34.9486 16.4444 34.9486C17.696 34.9486 18.7121 35.9647 18.7121 37.2163L18.7121 44.2506C18.7121 45.9957 18.0326 47.6369 16.798 48.8715C15.5634 50.1061 13.9222 50.7856 12.1771 50.7856L9.67673 50.7856C8.20665 50.7849 6.82567 50.2129 5.78693 49.1741Z" fill="#302100"/>
<path fill-rule="evenodd" clip-rule="evenodd" d="M3.5702 39.4719L3.00947 40.0327C1.64475 41.3974 1.64475 43.6177 3.00947 44.9824L6.4948 48.4677C7.34403 49.317 8.4747 49.7858 9.67749 49.7865H12.1778C13.6557 49.7865 15.0465 49.2102 16.0917 48.1651C17.1368 47.12 17.713 45.7291 17.713 44.2513L17.713 37.217C17.713 36.5395 17.1226 35.9491 16.4452 35.9491C15.7466 35.9491 15.1774 36.5183 15.1774 37.217L15.1774 37.5578C15.1774 37.6964 15.1208 37.8208 15.0303 37.9113C14.9398 38.0018 14.8146 38.0577 14.6767 38.0584C14.401 38.0584 14.1768 37.8343 14.1768 37.5585L14.1768 35.4499C14.1768 34.7513 13.6076 34.1821 12.909 34.1821C12.5703 34.1813 12.2514 34.3136 12.0124 34.5526C11.7734 34.7916 11.6411 35.1105 11.6411 35.4485L11.6411 37.5571C11.6411 37.6957 11.5846 37.8201 11.494 37.9106C11.4035 38.0011 11.2791 38.0577 11.1405 38.0577C10.8647 38.0577 10.6406 37.8336 10.6406 37.5578L10.6413 34.3878C10.6413 33.6892 10.0721 33.12 9.37343 33.12C8.67481 33.12 8.10559 33.6892 8.10559 34.3878L8.10559 37.5571C8.10559 37.6957 8.04902 37.8201 7.95851 37.9106C7.868 38.0011 7.74284 38.057 7.60496 38.0577C7.32918 38.0577 7.10503 37.8335 7.10503 37.5578L7.10503 35.8027C7.10503 35.1253 6.5146 34.5349 5.83719 34.5349C5.49919 34.5349 5.18029 34.6671 4.94128 34.9061C4.70228 35.1451 4.57005 35.464 4.57005 35.802L4.57005 41.0926C4.57005 41.2312 4.51349 41.3556 4.42298 41.4462C4.33247 41.5367 4.20731 41.5925 4.06942 41.5932C3.79365 41.5932 3.5695 41.3691 3.5695 41.0933L3.5702 39.4719Z" fill="#F2F1E9"/>
</svg>
