<svg width="16" height="16" viewBox="0 0 16 16" fill="none" xmlns="http://www.w3.org/2000/svg">
<path fill-rule="evenodd" clip-rule="evenodd" d="M14.7502 5.75014L10.2501 1.25004C9.01259 0.0125176 6.98755 0.0125176 5.75002 1.25004L1.24992 5.75014C0.0123955 6.98767 0.0123955 9.01272 1.24992 10.2502L5.75002 14.7503C6.98755 15.9879 9.01259 15.9879 10.2501 14.7503L14.7502 10.2502C15.9877 9.01272 15.9877 6.98767 14.7502 5.75014ZM9 8.41973C9 9.02191 8.6 9.42336 8 9.42336C7.4 9.42336 7 9.02191 7 8.41973V4.00375C7 3.40157 7.4 3.00012 8 3.00012C8.6 3.00012 9 3.40157 9 4.00375V8.41973ZM8 12.0001C8.55229 12.0001 9 11.5524 9 11.0001C9 10.4478 8.55229 10.0001 8 10.0001C7.44772 10.0001 7 10.4478 7 11.0001C7 11.5524 7.44772 12.0001 8 12.0001Z" fill="#A63A33"/>
</svg>
