<svg width="42" height="50" viewBox="0 0 42 50" fill="none" xmlns="http://www.w3.org/2000/svg">
<path fill-rule="evenodd" clip-rule="evenodd" d="M0.807617 49H41.1922V9H0.807617V49Z" fill="#FEEDA8"/>
<path fill-rule="evenodd" clip-rule="evenodd" d="M41.1922 12.1206V5.15723C41.1922 3.48034 40.1422 2.12061 38.8473 2.12061H2.64447C1.62964 2.12061 0.807617 3.18511 0.807617 4.49929V12.1206H41.1922Z" fill="#2A2513"/>
<path fill-rule="evenodd" clip-rule="evenodd" d="M5.97461 29.5846H35.6826V21.6654H5.97461V29.5846Z" fill="#C6AE60"/>
<path fill-rule="evenodd" clip-rule="evenodd" d="M7.02051 28.0014H34.3905V23.2502H7.02051V28.0014Z" fill="#FEEDA8"/>
<path fill-rule="evenodd" clip-rule="evenodd" d="M5.97461 20.2307H23.7962V18.6923H5.97461V20.2307Z" fill="#2F2515"/>
<path fill-rule="evenodd" clip-rule="evenodd" d="M5.77832 41.7692H35.6008V34.0769H5.77832V41.7692Z" fill="#70C498"/>
<path fill-rule="evenodd" clip-rule="evenodd" d="M18.8252 38.737H20.1168V37.1538H18.8252V38.737Z" fill="#F2F1ED"/>
<path fill-rule="evenodd" clip-rule="evenodd" d="M20.0684 40.2755H21.36V38.6923H20.0684V40.2755Z" fill="#F2F1ED"/>
<path fill-rule="evenodd" clip-rule="evenodd" d="M21.3105 38.737H22.6022V37.1538H21.3105V38.737Z" fill="#F2F1ED"/>
<path fill-rule="evenodd" clip-rule="evenodd" d="M22.5527 37.1986H23.8444V35.6154H22.5527V37.1986Z" fill="#F2F1ED"/>
<path fill-rule="evenodd" clip-rule="evenodd" d="M11.1406 6.88765C11.1406 5.85458 11.8175 5.0166 12.6519 5.0166C13.4863 5.0166 14.1631 5.85458 14.1631 6.88765C14.1631 7.92073 13.4863 8.75871 12.6519 8.75871C11.8175 8.75871 11.1406 7.92073 11.1406 6.88765Z" fill="#FEEDA8"/>
<path fill-rule="evenodd" clip-rule="evenodd" d="M7.0459 6.88765C7.0459 5.85458 7.72272 5.0166 8.55713 5.0166C9.39154 5.0166 10.0684 5.85458 10.0684 6.88765C10.0684 7.92073 9.39154 8.75871 8.55713 8.75871C7.72272 8.75871 7.0459 7.92073 7.0459 6.88765Z" fill="#FEEDA8"/>
<path fill-rule="evenodd" clip-rule="evenodd" d="M3.1709 6.88765C3.1709 5.85458 3.84772 5.0166 4.68213 5.0166C5.51654 5.0166 6.19337 5.85458 6.19337 6.88765C6.19337 7.92073 5.51654 8.75871 4.68213 8.75871C3.84772 8.75871 3.1709 7.92073 3.1709 6.88765Z" fill="#FEEDA8"/>
</svg>
