<svg width="8" height="14" viewBox="0 0 8 14" fill="none" xmlns="http://www.w3.org/2000/svg">
<path d="M4.65231 13.7065C4.45434 13.9022 4.25637 14 3.95941 14C3.66246 14 3.46449 13.9022 3.26652 13.7065C3.06855 13.5109 2.96956 13.3152 2.96956 13.0218C2.96956 12.7283 3.06855 12.5326 3.26652 12.337C3.66246 11.9457 4.25637 11.9457 4.65231 12.337C4.85028 12.5326 4.94927 12.7283 4.94927 13.0218C4.94927 13.3152 4.85028 13.5109 4.65231 13.7065ZM5.44419 7.6414C5.14724 7.73923 4.94927 8.0327 4.94927 8.32617V9.10877C4.94927 9.69572 4.55333 10.087 3.95941 10.087C3.3655 10.087 2.96956 9.69572 2.96956 9.10877V8.32617C2.96956 7.2501 3.66246 6.17403 4.65231 5.78274C5.44419 5.48926 6.13709 4.60884 5.93912 3.43494C5.74115 2.75017 5.14724 2.16323 4.45434 1.96758C3.06854 1.6741 1.97971 2.65235 1.97971 3.92407C1.97971 4.51101 1.58377 4.90231 0.989854 4.90231C0.395941 4.90231 0 4.51101 0 3.92407C0 1.38063 2.37565 -0.478038 4.94927 0.108909C6.43405 0.402383 7.62187 1.57628 7.91883 3.04365C8.31477 5.00014 7.22593 6.95663 5.44419 7.6414Z" fill="#666666"/>
</svg>
