<svg width="14" height="10" viewBox="0 0 14 10" fill="none" xmlns="http://www.w3.org/2000/svg">
<path d="M12.8668 3.46348H10.5949L9.54541 0.848893C9.3376 0.331445 8.84281 -0.00292969 8.28499 -0.00292969H5.72562C5.16781 -0.00292969 4.67353 0.331445 4.46572 0.848893L3.41582 3.46348H1.13343C0.838639 3.46348 0.600098 3.70228 0.600098 3.99681C0.600098 4.29134 0.838639 4.53014 1.13343 4.53014H1.58239L2.44271 8.59968C2.61338 9.41566 3.3387 10.0023 4.16536 10.0023H9.8347C10.6614 10.0023 11.3867 9.41566 11.5574 8.59968L12.4177 4.53014H12.8668C13.1616 4.53014 13.4001 4.29134 13.4001 3.99681C13.4001 3.70228 13.1616 3.46348 12.8668 3.46348ZM5.45531 1.24629C5.5001 1.13535 5.60583 1.06374 5.72562 1.06374H8.28499C8.40478 1.06374 8.51103 1.13535 8.55583 1.24629L9.44583 3.46348H4.5653L5.45531 1.24629ZM8.11738 7.421H7.53603V8.00234C7.53603 8.29567 7.29603 8.53568 7.0027 8.53568C6.70404 8.53568 6.46937 8.29567 6.46937 8.00234V7.421H5.88271C5.58935 7.421 5.34938 7.18099 5.34938 6.88766C5.34938 6.59434 5.58935 6.35433 5.88271 6.35433H6.46937V5.77301C6.46937 5.47969 6.70404 5.23968 7.0027 5.23968C7.29603 5.23968 7.53603 5.47969 7.53603 5.77301V6.35433H8.11738C8.41071 6.35433 8.65072 6.59434 8.65072 6.88766C8.65072 7.18099 8.41071 7.421 8.11738 7.421Z" fill="#333333"/>
</svg>
