<svg width="30" height="30" viewBox="0 0 30 30" fill="none" xmlns="http://www.w3.org/2000/svg">
<path d="M13.4904 9.86L20.5004 4.03C20.3704 4.01 20.2404 4 20.1004 4H6.30035C6.15035 4 6.01035 4.01 5.86035 4.03L12.9304 9.87C13.0904 9.99 13.3204 9.99 13.4904 9.86Z" fill="#999999"/>
<path d="M13.68 19.63C13.68 15.5 17.04 12.15 21.17 12.15C21.99 12.15 22.72 12.27 23.4 12.49V7.30001C23.4 6.43001 23.06 5.60001 22.46 5.01001L14.76 11.41C13.86 12.13 12.58 12.15 11.67 11.42L3.93 5.02001C3.34 5.62001 3 6.44001 3 7.30001V17.93C3 19.76 4.48 21.24 6.3 21.24H13.87C13.76 20.79 13.68 20.18 13.68 19.63Z" fill="#999999"/>
<path d="M25.8398 20.5101C25.6998 20.4301 25.6698 20.3501 25.6798 20.1901C25.6998 19.8201 25.7098 19.4401 25.6798 19.0701C25.6698 18.9101 25.6998 18.8301 25.8398 18.7501C26.4498 18.4001 26.7298 17.7901 26.6198 17.1001C26.4898 16.2701 25.6298 15.6501 24.8098 15.8301C24.5598 15.8801 24.3198 16.0001 24.0798 16.0901C24.0598 16.1001 24.0198 16.0801 23.9898 16.0601C23.6598 15.8601 23.3398 15.6401 22.9898 15.4701C22.8098 15.3801 22.7498 15.3101 22.7398 15.1001C22.7298 13.8901 21.3998 13.1501 20.3698 13.7701C19.8298 14.0901 19.5798 14.5801 19.5998 15.2101C19.5998 15.3201 19.5698 15.3701 19.4598 15.4101C19.0698 15.5601 18.7198 15.7701 18.3898 16.0201C18.3398 16.0501 18.2998 16.0901 18.2598 16.1201C18.1698 16.0701 18.0898 16.0201 18.0098 15.9801C16.9598 15.4201 15.6698 16.2001 15.6898 17.3901C15.6898 18.0201 16.0098 18.4801 16.5498 18.7801C16.6298 18.8301 16.6798 18.8701 16.6598 18.9801C16.5898 19.3601 16.5698 19.7401 16.6398 20.1101C16.6798 20.3401 16.6098 20.4401 16.4198 20.5501C15.8198 20.9101 15.5498 21.6501 15.7498 22.3201C15.9498 23.0001 16.5598 23.4501 17.2598 23.4601C17.6198 23.4601 17.9398 23.3301 18.2098 23.1601C18.6098 23.3801 18.9698 23.6201 19.3498 23.8001C19.5398 23.8901 19.5898 23.9701 19.5898 24.1701C19.5998 24.8201 19.9198 25.2901 20.4998 25.5601C21.0698 25.8301 21.6298 25.7601 22.1298 25.3701C22.5598 25.0301 22.7598 24.5801 22.7298 24.0301C22.7298 23.9301 22.7598 23.8901 22.8498 23.8601C22.9798 23.8201 23.0998 23.7601 23.2198 23.6901C23.5098 23.5201 23.7998 23.3401 24.0898 23.1501C24.1498 23.1801 24.2298 23.2301 24.3098 23.2701C25.3698 23.8301 26.6598 23.0601 26.6298 21.8601C26.6198 21.2601 26.3398 20.8001 25.8198 20.5101H25.8398ZM21.1698 21.8001C19.9798 21.8001 18.9898 20.8101 18.9998 19.6201C18.9998 18.4301 19.9798 17.4601 21.1698 17.4601C22.3598 17.4601 23.3498 18.4501 23.3398 19.6401C23.3398 20.8301 22.3598 21.8001 21.1698 21.8001Z" fill="#999999"/>
<path d="M21.1801 18.3301C20.4501 18.3301 19.8701 18.9101 19.8701 19.6301C19.8701 20.3501 20.4501 20.9301 21.1701 20.9301C21.9001 20.9301 22.4801 20.3501 22.4801 19.6301C22.4801 18.9101 21.9001 18.3301 21.1801 18.3301Z" fill="#999999"/>
</svg>
