<svg width="16" height="16" viewBox="0 0 16 16" fill="none" xmlns="http://www.w3.org/2000/svg">
<path fill-rule="evenodd" clip-rule="evenodd" d="M11.6395 4.2549C11.2996 3.91503 10.7486 3.91503 10.4087 4.2549L7.94721 6.71644L5.59125 4.36048C5.25139 4.02062 4.70035 4.02062 4.36048 4.36048C4.02062 4.70035 4.02062 5.25139 4.36048 5.59125L6.71644 7.94721L4.2549 10.4087C3.91503 10.7486 3.91503 11.2996 4.2549 11.6395C4.59477 11.9794 5.1458 11.9794 5.48567 11.6395L7.94721 9.17798L10.5143 11.7451C10.8542 12.085 11.4052 12.085 11.7451 11.7451C12.085 11.4052 12.085 10.8542 11.7451 10.5143L9.17798 7.94721L11.6395 5.48567C11.9794 5.1458 11.9794 4.59477 11.6395 4.2549Z" fill="#666666"/>
<mask id="mask0_12231_36195" style="mask-type:luminance" maskUnits="userSpaceOnUse" x="0" y="0" width="16" height="16">
<path fill-rule="evenodd" clip-rule="evenodd" d="M16 8C16 12.4183 12.4183 16 8 16C3.58172 16 0 12.4183 0 8C0 3.58172 3.58172 0 8 0C12.4183 0 16 3.58172 16 8ZM10.4087 4.2549C10.7486 3.91503 11.2996 3.91503 11.6395 4.2549C11.9794 4.59477 11.9794 5.1458 11.6395 5.48567L9.17798 7.94721L11.7451 10.5143C12.085 10.8542 12.085 11.4052 11.7451 11.7451C11.4052 12.085 10.8542 12.085 10.5143 11.7451L7.94721 9.17798L5.48567 11.6395C5.1458 11.9794 4.59477 11.9794 4.2549 11.6395C3.91503 11.2996 3.91503 10.7486 4.2549 10.4087L6.71644 7.94721L4.36048 5.59125C4.02062 5.25139 4.02062 4.70035 4.36048 4.36048C4.70035 4.02062 5.25139 4.02062 5.59125 4.36048L7.94721 6.71644L10.4087 4.2549Z" fill="white"/>
</mask>
<g mask="url(#mask0_12231_36195)">
</g>
</svg>
