<svg width="18" height="14" viewBox="0 0 18 14" fill="none" xmlns="http://www.w3.org/2000/svg">
<path d="M11.9555 13.08C11.9555 13.2675 11.8955 13.44 11.7605 13.575C11.633 13.7025 11.453 13.7775 11.2655 13.7775H0.683014C0.495514 13.7775 0.323014 13.7025 0.195514 13.575C0.0680142 13.4475 -0.00698578 13.2675 0.000514217 13.08C0.0605142 9.84752 2.74551 7.20752 5.97801 7.20752C9.21051 7.20752 11.8955 9.84002 11.9555 13.08Z" fill="#CCCCCC"/>
<path d="M2.61798 3.1875C2.61798 1.4325 4.05798 0 5.81298 0C7.56798 0 9.00048 1.4325 9.00048 3.1875C9.00048 4.9425 7.56798 6.3825 5.81298 6.3825C4.05798 6.3825 2.61798 4.95 2.61798 3.1875Z" fill="#CCCCCC"/>
<path d="M10.2905 4.98729C10.2905 3.49479 11.5055 2.27979 12.998 2.27979C14.4905 2.27979 15.698 3.49479 15.698 4.98729C15.698 6.47979 14.483 7.68729 12.998 7.68729C11.513 7.68729 10.2905 6.47229 10.2905 4.98729Z" fill="#CCCCCC"/>
<path d="M18.0005 13.0121C18.0005 13.2146 17.9255 13.4096 17.783 13.5521C17.6405 13.6946 17.453 13.7771 17.2505 13.7771H13.3505C13.433 13.5371 13.463 13.2896 13.4555 13.0496C13.4255 11.3021 12.7805 9.69705 11.7305 8.42955C12.1805 8.29455 12.653 8.22705 13.1255 8.22705C15.7655 8.22705 17.9555 10.3721 18.0005 13.0121Z" fill="#CCCCCC"/>
</svg>
