<svg width="24" height="24" viewBox="0 0 24 24" fill="none" xmlns="http://www.w3.org/2000/svg">
<path fill-rule="evenodd" clip-rule="evenodd" d="M7.37861 10.3088C7.96742 11.2702 9.63331 11.1445 10.0085 10.0412C10.0085 10.0412 10.455 8.40413 12.1793 8.3912C13.9028 8.40413 14.3501 10.0412 14.3501 10.0412C14.7249 11.1445 16.3904 11.2702 16.977 10.3088C17.3666 9.67453 17.208 9.22544 17.1444 9.0081C17.1444 9.0081 15.9143 5.42091 12.1844 5.42091H12.1793H12.1741C8.44349 5.42091 7.21228 9.0081 7.21228 9.0081C7.15018 9.22544 6.99235 9.67453 7.37861 10.3088ZM12.1785 0C18.3531 0 23.3596 5.00581 23.3596 11.1804C23.3596 14.5513 21.8615 17.566 19.5033 19.6155L20.8532 24L16.5297 21.4825C15.1924 22.0477 13.7228 22.3615 12.1785 22.3615C6.00507 22.3615 1.00001 17.3557 1.00001 11.1804C1.00001 5.00581 6.00507 0 12.1785 0Z" fill="#FBB224"/>
</svg>
