<svg width="24" height="24" viewBox="0 0 24 24" fill="none" xmlns="http://www.w3.org/2000/svg">
<path d="M23.5205 10.4641C22.3685 11.6161 20.7365 12.3841 18.9125 12.3841C15.4565 12.3841 12.6725 9.69606 12.3845 6.33606H3.26447C1.72847 6.43206 0.480469 7.68006 0.480469 9.21606V16.8001H23.5205V10.4641ZM6.52847 12.4801C6.52847 12.8641 6.24047 13.1521 5.85647 13.1521H3.07247C2.68847 13.1521 2.40047 12.8641 2.40047 12.4801V9.69606C2.40047 9.31206 2.68847 9.02406 3.07247 9.02406H5.85647C6.24047 9.02406 6.52847 9.31206 6.52847 9.69606V12.4801Z" fill="#212121"/>
<path d="M0.479789 19.968C0.479789 21.504 1.72779 22.752 3.26379 22.752H20.6398C22.1758 22.752 23.4238 21.504 23.4238 19.968V19.776H0.383789V19.968H0.479789Z" fill="#212121"/>
<path d="M18.9117 10.464C21.5037 10.464 23.5197 8.35205 23.5197 5.85605C23.5197 3.36005 21.4077 1.24805 18.9117 1.24805C16.3197 1.24805 14.3037 3.36005 14.3037 5.85605C14.3037 8.35205 16.3197 10.464 18.9117 10.464ZM16.9917 5.08805H18.1437V4.03205C18.1437 3.64805 18.4317 3.26405 18.9117 3.26405C19.2957 3.26405 19.6797 3.55205 19.6797 4.03205V5.18405H20.8317C21.2157 5.18405 21.5997 5.47205 21.5997 5.95205C21.5997 6.33605 21.3117 6.72005 20.8317 6.72005H19.6797V7.68005C19.6797 8.06405 19.3917 8.44805 18.9117 8.44805C18.7197 8.44805 18.5277 8.35205 18.4317 8.25605C18.2397 8.06405 18.1437 7.87205 18.1437 7.68005V6.52805H16.9917C16.7997 6.52805 16.6077 6.43205 16.5117 6.33605C16.4157 6.24005 16.3197 6.04805 16.3197 5.85605C16.3197 5.47205 16.6077 5.08805 16.9917 5.08805Z" fill="#212121"/>
</svg>
