<svg width="52" height="50" viewBox="0 0 52 50" fill="none" xmlns="http://www.w3.org/2000/svg">
<path fill-rule="evenodd" clip-rule="evenodd" d="M1.50684 38.0411H49.6996V4.90857H1.50684V38.0411Z" fill="#FEEC9D"/>
<path fill-rule="evenodd" clip-rule="evenodd" d="M24.5898 43.9477H26.617V40.0676H24.5898V43.9477Z" fill="#302100"/>
<path fill-rule="evenodd" clip-rule="evenodd" d="M25.6025 44.9525C24.8742 44.9525 24.2826 45.5453 24.2826 46.2736C24.2826 47.0019 24.8742 47.5941 25.6025 47.5941C26.3308 47.5941 26.9236 47.0019 26.9236 46.2736C26.9236 45.5453 26.3308 44.9525 25.6025 44.9525ZM25.6025 49.6212C23.7561 49.6212 22.2549 48.12 22.2549 46.2736C22.2549 44.4278 23.7561 42.9254 25.6025 42.9254C27.4483 42.9254 28.9513 44.4278 28.9513 46.2736C28.9513 48.12 27.4483 49.6212 25.6025 49.6212Z" fill="#302100"/>
<path fill-rule="evenodd" clip-rule="evenodd" d="M51.2048 38.9449C51.2048 38.7129 51.1163 38.4822 50.9398 38.3057C50.7639 38.1292 50.5331 38.0413 50.3012 38.0413H0.903614C0.672892 38.0413 0.440964 38.1292 0.264458 38.3057C0.0879518 38.4822 0 38.7129 0 38.9449V39.1635C0 39.3955 0.0879518 39.6262 0.264458 39.8027C0.440964 39.9792 0.672892 40.0672 0.903614 40.0672H50.3012C50.5331 40.0672 50.7639 39.9792 50.9398 39.8027C51.1163 39.6262 51.2048 39.3955 51.2048 39.1635V38.9449Z" fill="#302100"/>
<path fill-rule="evenodd" clip-rule="evenodd" d="M51.2048 3.94487C51.2048 3.71295 51.1163 3.48222 50.9398 3.30572C50.7639 3.12921 50.5331 3.04126 50.3012 3.04126H0.903614C0.672892 3.04126 0.440964 3.12921 0.264458 3.30572C0.0879518 3.48222 0 3.71295 0 3.94487V4.16355C0 4.39548 0.0879518 4.6262 0.264458 4.80271C0.440964 4.97921 0.672892 5.06716 0.903614 5.06716H50.3012C50.5331 5.06716 50.7639 4.97921 50.9398 4.80271C51.1163 4.6262 51.2048 4.39548 51.2048 4.16355V3.94487Z" fill="#302100"/>
<path fill-rule="evenodd" clip-rule="evenodd" d="M32 13H35V10H32V13Z" fill="#65C192"/>
<path fill-rule="evenodd" clip-rule="evenodd" d="M37 13H40V10H37V13Z" fill="#E34F45"/>
<path fill-rule="evenodd" clip-rule="evenodd" d="M42 13H45V10H42V13Z" fill="#525845"/>
<path fill-rule="evenodd" clip-rule="evenodd" d="M32 31H46V29H32V31Z" fill="#525845"/>
<path fill-rule="evenodd" clip-rule="evenodd" d="M32 27H46V25H32V27Z" fill="#525845"/>
<path fill-rule="evenodd" clip-rule="evenodd" d="M32 23H46V21H32V23Z" fill="#525845"/>
<path fill-rule="evenodd" clip-rule="evenodd" d="M32 19H46V17H32V19Z" fill="#525845"/>
<path fill-rule="evenodd" clip-rule="evenodd" d="M18 10.0107C21.5162 10.1612 24.6235 11.8905 26.6308 14.5078L21.528 17.755C20.6302 16.7898 19.3896 16.1477 18 16.0225L18 10.0107Z" fill="#525845"/>
<path fill-rule="evenodd" clip-rule="evenodd" d="M20.8955 25.8266C22.1767 24.8197 22.9995 23.2559 22.9995 21.5C22.9995 20.0532 22.4409 18.7368 21.5275 17.7549L26.6303 14.5077C28.1163 16.4453 28.9995 18.8695 28.9995 21.5C28.9995 25.4413 27.0168 28.9195 23.9945 30.9916L20.8955 25.8266H20.8955Z" fill="#E34F45"/>
<path fill-rule="evenodd" clip-rule="evenodd" d="M20.896 25.8266C19.9609 26.5616 18.7816 27 17.5 27C14.4624 27 12 24.5376 12 21.5C12 18.4624 14.4624 16 17.5 16C17.6685 16 17.8353 16.0076 18 16.0224V10.0107C17.8342 10.0036 17.6675 10 17.5 10C11.1487 10 6 15.1487 6 21.5C6 27.8513 11.1487 33 17.5 33C19.91 33 22.1469 32.2587 23.995 30.9916L20.896 25.8266Z" fill="#33AD73"/>
<path fill-rule="evenodd" clip-rule="evenodd" d="M1.50684 38.0411H49.6996V4.90857L1.50684 38.0411Z" fill="#302100" fill-opacity="0.1"/>
</svg>
