<svg width="24" height="24" viewBox="0 0 24 24" fill="none" xmlns="http://www.w3.org/2000/svg">
<path d="M18.8571 10.0286C18.5143 8.4857 17.0571 7.37141 15.4286 7.37141C15.2571 7.37141 15.0857 7.37141 15 7.37141C14.2286 6.0857 12.8572 5.31427 11.4 5.31427C9.51429 5.31427 7.88572 6.51427 7.37144 8.31427C5.40001 8.31427 3.85715 9.85713 3.85715 11.8286C3.85715 11.9143 3.85715 12 3.85715 12.0857C2.57144 12.6 1.71429 13.8 1.71429 15.2571C1.71429 17.1428 3.25715 18.6857 5.14287 18.6857H17.9143C20.3143 18.6857 22.2857 16.7143 22.2857 14.3143C22.2857 12.1714 20.8286 10.4571 18.8571 10.0286ZM14.4 12.3428L12 14.6571C11.6572 15 11.1429 15 10.8 14.6571L9.34286 13.2C9.00001 12.8571 9.00001 12.3428 9.34286 12C9.68572 11.6571 10.2 11.6571 10.5429 12L11.4 12.8571L13.1143 11.1428C13.4572 10.8 13.9714 10.8 14.3143 11.1428C14.6572 11.4857 14.7429 12 14.4 12.3428Z" fill="#333333"/>
</svg>
