<svg width="24" height="24" viewBox="0 0 24 24" fill="none" xmlns="http://www.w3.org/2000/svg">
<path d="M21.6 12.2339C21.6 14.2579 19.952 15.9058 17.92 15.9058H16.248C16.536 15.0659 16.352 14.1058 15.68 13.4419L13.712 11.4499C12.7747 10.5292 11.2466 10.5152 10.312 11.4499L8.31204 13.4419C7.65603 14.1058 7.472 15.0738 7.76003 15.9058H6.072C4.04802 15.9058 2.40002 14.2579 2.40002 12.2339C2.40002 10.2259 4.024 8.58583 6.03201 8.5618C6.16799 6.31385 8.04001 4.53778 10.32 4.53778C11.76 4.53778 13.088 5.24989 13.888 6.40985C14.256 6.28983 14.64 6.22587 15.032 6.22587C16.584 6.22587 17.952 7.20184 18.48 8.60985C20.264 8.89784 21.6 10.4099 21.6 12.2339Z" fill="#666666"/>
<path d="M9.45935 14.5582L11.4433 12.5822C11.5953 12.4301 11.7953 12.3502 12.0114 12.3502C12.2194 12.3502 12.4274 12.4301 12.5794 12.5822L14.5473 14.5662C14.8594 14.8781 14.8594 15.3822 14.5473 15.6941C14.2354 16.0062 13.7314 16.0062 13.4194 15.6941L12.8033 15.0781V18.6622C12.8033 19.1021 12.4513 19.4622 12.0033 19.4622C11.5634 19.4622 11.2033 19.1021 11.2033 18.6622V15.0861L10.5953 15.6941C10.2834 16.0062 9.77136 16.0062 9.45935 15.6941C9.14734 15.3822 9.14734 14.8781 9.45935 14.5582Z" fill="#666666"/>
</svg>
