<?xml version="1.0" encoding="utf-8"?>
<!-- Generator: Adobe Illustrator 19.0.0, SVG Export Plug-In . SVG Version: 6.00 Build 0)  -->
<svg version="1.1" id="Layer_1" xmlns="http://www.w3.org/2000/svg" xmlns:xlink="http://www.w3.org/1999/xlink" x="0px" y="0px"
	 viewBox="-236 361.1 122.9 119.8" style="enable-background:new -236 361.1 122.9 119.8;" xml:space="preserve">
<style type="text/css">
	.st0{fill:#666666;}
</style>
<g>
	<path class="st0" d="M-186,361.1L-186,361.1L-186,361.1c13.8,0,26.3,5.6,35.4,14.7c9,9,14.6,21.5,14.6,35.3h0v0v0h0
		c0,5.6-0.9,10.9-2.6,15.9c-0.3,0.8-0.6,1.6-0.9,2.4v0c-1.4,3.7-3.3,7.1-5.5,10.3l29.1,26.1l0,0l0.2,0.1l0,0
		c1.6,1.6,2.5,3.7,2.6,5.8c0.1,2.1-0.5,4.2-2,6l0,0l-0.2,0.2l0,0l-0.1,0.2l0,0c-1.6,1.6-3.7,2.5-5.8,2.6c-2.1,0.1-4.2-0.5-6-2l0,0
		l-0.2-0.2l0,0l-29.7-26.7c-0.9,0.6-1.8,1.2-2.7,1.8c-1.2,0.8-2.5,1.5-3.8,2.1c-6.7,3.3-14.3,5.2-22.3,5.2v0h0v0
		c-13.8,0-26.3-5.6-35.3-14.6c-9-9-14.6-21.5-14.6-35.3h0v0v0h0c0-13.8,5.6-26.3,14.6-35.3C-212.3,366.7-199.8,361.1-186,361.1
		L-186,361.1L-186,361.1L-186,361.1z M-186,372.3L-186,372.3L-186,372.3L-186,372.3L-186,372.3c-10.7,0-20.4,4.4-27.4,11.4
		c-7,7-11.4,16.7-11.4,27.4h0v0v0h0c0,10.7,4.3,20.4,11.4,27.4c7,7,16.7,11.4,27.4,11.4v0h0h0v0c10.7,0,20.4-4.3,27.4-11.4
		c7-7,11.4-16.7,11.4-27.4h0v0v0h0c0-10.7-4.4-20.4-11.4-27.4C-165.6,376.7-175.3,372.3-186,372.3L-186,372.3z"/>
</g>
</svg>
