<svg width="52" height="51" viewBox="0 0 52 51" fill="none" xmlns="http://www.w3.org/2000/svg">
<path fill-rule="evenodd" clip-rule="evenodd" d="M7.06243 34.35C4.96342 32.7415 3.42958 32.3939 3.57628 31.8491C3.69111 31.4233 4.03603 31.6279 4.27932 30.5026C4.51297 29.4221 3.67344 28.3181 2.66036 28.0889C1.66746 27.7832 0.419579 28.2783 0.111479 29.3862C-0.263954 30.4825 0.346396 31.7892 1.37978 32.1793C2.56114 32.7444 4.12148 33.0344 5.46067 34.861L6.48855 36.2629L12.9721 41.115C13.8102 41.6575 14.9255 41.9833 15.987 41.2799L7.06243 34.35ZM3.14912 29.1447C4.03132 30.0791 3.49324 31.7321 2.31544 31.7294C1.23193 31.7956 0.244996 30.4039 0.863491 29.3696C1.29719 28.4987 2.54508 28.505 3.14912 29.1447Z" fill="#555845"/>
<path fill-rule="evenodd" clip-rule="evenodd" d="M9 0V24V35H49V24V0H9Z" fill="#FFEEA9"/>
<path fill-rule="evenodd" clip-rule="evenodd" d="M18 6H43V7H18V6Z" fill="#D3BE61"/>
<path fill-rule="evenodd" clip-rule="evenodd" d="M18 13H43V14H18V13Z" fill="#D3BE61"/>
<path fill-rule="evenodd" clip-rule="evenodd" d="M13.7646 4.66663H17.2058V8.16663H13.7646V4.66663Z" fill="#8F7C38"/>
<path fill-rule="evenodd" clip-rule="evenodd" d="M13.7646 11.6666H17.2058V15.1666H13.7646V11.6666Z" fill="#8F7C38"/>
<path fill-rule="evenodd" clip-rule="evenodd" d="M18 20H43V21H18V20Z" fill="#D3BE61"/>
<path fill-rule="evenodd" clip-rule="evenodd" d="M13.7646 18.6666H17.2058V22.1666H13.7646V18.6666Z" fill="#8F7C38"/>
<path fill-rule="evenodd" clip-rule="evenodd" d="M18 27H43V28H18V27Z" fill="#D3BE61"/>
<path fill-rule="evenodd" clip-rule="evenodd" d="M13.7646 25.6666H17.2058V29.1666H13.7646V25.6666Z" fill="#8F7C38"/>
<path fill-rule="evenodd" clip-rule="evenodd" d="M41 0L49.0294 8.16667H41V0Z" fill="#FFFAE9"/>
<path fill-rule="evenodd" clip-rule="evenodd" d="M49 18V8H41L49 18Z" fill="#FDD83F" fill-opacity="0.6"/>
<path fill-rule="evenodd" clip-rule="evenodd" d="M18.3077 35L9 40.8333V50.1667L49 50V35H18.3077Z" fill="#FFEEA9"/>
<path fill-rule="evenodd" clip-rule="evenodd" d="M18 35H20V36H18V35Z" fill="#D3BE61"/>
<path fill-rule="evenodd" clip-rule="evenodd" d="M23 35H25V36H23V35Z" fill="#D3BE61"/>
<path fill-rule="evenodd" clip-rule="evenodd" d="M28 35H30V36H28V35Z" fill="#D3BE61"/>
<path fill-rule="evenodd" clip-rule="evenodd" d="M33 35H35V36H33V35Z" fill="#D3BE61"/>
<path fill-rule="evenodd" clip-rule="evenodd" d="M38 35H40V36H38V35Z" fill="#D3BE61"/>
<path fill-rule="evenodd" clip-rule="evenodd" d="M43 35H45V36H43V35Z" fill="#D3BE61"/>
<path fill-rule="evenodd" clip-rule="evenodd" d="M47 35H49V36H47V35Z" fill="#D3BE61"/>
<path fill-rule="evenodd" clip-rule="evenodd" d="M18.3532 34.8334L9.17676 40.6667H18.3532V34.8334Z" fill="#FDD83F"/>
<path fill-rule="evenodd" clip-rule="evenodd" d="M18 44H43V45H18V44Z" fill="#D3BE61"/>
<path fill-rule="evenodd" clip-rule="evenodd" d="M13.7646 43H17.2058V46.5H13.7646V43Z" fill="#8F7C38"/>
<path fill-rule="evenodd" clip-rule="evenodd" d="M7.11916 36.6618C5.01695 38.2654 3.48218 38.6093 3.62786 39.1543C3.74165 39.5805 4.08714 39.3766 4.32814 40.5026C4.5595 41.5836 3.71756 42.6857 2.70413 42.9125C1.71055 43.2159 0.463585 42.7177 0.158008 41.6092C-0.215359 40.5119 0.397858 39.2068 1.43205 38.8192C2.61466 38.2566 4.17547 37.9706 5.51856 36.147L6.54942 34.7473L13.0431 29.9105C13.8825 29.3699 14.9983 29.047 16.0584 29.7528L7.11916 36.6618ZM3.19485 41.8578C4.07923 40.9255 3.54458 39.2711 2.36678 39.2713C1.28327 39.2023 0.293476 40.5917 0.909905 41.6275C1.34166 42.4995 2.58943 42.4961 3.19485 41.8578Z" fill="#838370"/>
</svg>
