<svg width="4" height="16" viewBox="0 0 4 16" fill="none" xmlns="http://www.w3.org/2000/svg">
<g clip-path="url(#clip0_17_3925)">
<path d="M1.83208 3.66417C2.84392 3.66417 3.66417 2.84392 3.66417 1.83208C3.66417 0.820252 2.84392 0 1.83208 0C0.820252 0 0 0.820252 0 1.83208C0 2.84392 0.820252 3.66417 1.83208 3.66417Z" fill="#666666"/>
<path d="M1.83208 9.54893C2.84392 9.54893 3.66417 8.72868 3.66417 7.71685C3.66417 6.70502 2.84392 5.88477 1.83208 5.88477C0.820252 5.88477 0 6.70502 0 7.71685C0 8.72868 0.820252 9.54893 1.83208 9.54893Z" fill="#666666"/>
<path d="M1.83208 15.4335C2.84392 15.4335 3.66417 14.6132 3.66417 13.6014C3.66417 12.5895 2.84392 11.7693 1.83208 11.7693C0.820252 11.7693 0 12.5895 0 13.6014C0 14.6132 0.820252 15.4335 1.83208 15.4335Z" fill="#666666"/>
</g>
<defs>
<clipPath id="clip0_17_3925">
<rect width="3.66997" height="15.4336" fill="white"/>
</clipPath>
</defs>
</svg>
