<svg width="14" height="14" viewBox="0 0 14 14" fill="none" xmlns="http://www.w3.org/2000/svg">
<path d="M13.9995 13.2562C14.0075 13.4531 13.9274 13.6427 13.7752 13.7813C13.6231 13.9198 13.4148 14 13.1986 14H0.80136C0.585113 14 0.376931 13.9198 0.232783 13.7813C0.0806186 13.6427 -0.00751285 13.4531 0.000503643 13.2562C0.0726022 9.80728 3.21194 7 6.99998 7C10.7881 7 13.9274 9.80728 13.9995 13.2562Z" fill="white"/>
<path d="M4 2.99674C4 1.34404 5.35046 0 7.0032 0C8.65593 0 10 1.34404 10 2.99674C10 4.65596 8.65593 6 7.0032 6C5.35046 6 4 4.65596 4 2.99674Z" fill="white"/>
</svg>
