<svg width="54" height="49" viewBox="0 0 54 49" fill="none" xmlns="http://www.w3.org/2000/svg">
<path d="M23.667 13.5432L39.3365 0.511395C39.0459 0.466689 38.7553 0.444336 38.4424 0.444336H7.59511C7.25981 0.444336 6.94687 0.466689 6.61157 0.511395L22.4152 13.5656C22.7729 13.8338 23.287 13.8338 23.667 13.5432Z" fill="#FAB221"/>
<path d="M24.0914 35.3821C24.0914 26.1503 31.602 18.662 40.8338 18.662C42.6668 18.662 44.2986 18.9302 45.8186 19.422V7.82076C45.8186 5.87604 45.0586 4.02074 43.7174 2.7019L26.5055 17.0079C24.4937 18.6173 21.6325 18.662 19.5984 17.0302L2.2971 2.72426C0.978267 4.06544 0.218262 5.8984 0.218262 7.82076V31.5821C0.218262 35.6727 3.52652 38.981 7.59478 38.981H24.5161C24.2702 37.9751 24.0914 36.6115 24.0914 35.3821Z" fill="#FAB221"/>
<path d="M51.2729 37.3495C50.9599 37.1706 50.8929 36.9918 50.9152 36.6342C50.9599 35.8071 50.9823 34.9577 50.9152 34.1306C50.8929 33.773 50.9599 33.5942 51.2729 33.4153C52.6364 32.633 53.2623 31.2694 53.0164 29.7271C52.7258 27.8718 50.8035 26.4859 48.9705 26.8882C48.4117 27 47.8752 27.2682 47.3387 27.4694C47.294 27.4918 47.2046 27.4471 47.1375 27.4023C46.3999 26.9553 45.6846 26.4635 44.9022 26.0835C44.4999 25.8823 44.3658 25.7259 44.3434 25.2564C44.3211 22.5517 41.3481 20.8976 39.0457 22.2835C37.8387 22.9988 37.2798 24.0941 37.3245 25.5023C37.3245 25.7482 37.2575 25.86 37.0116 25.9494C36.1398 26.2847 35.3575 26.7541 34.6198 27.3129C34.5081 27.38 34.4186 27.4694 34.3292 27.5365C34.128 27.4247 33.9492 27.3129 33.7704 27.2235C31.4233 25.9717 28.5398 27.7153 28.5845 30.3753C28.5845 31.7836 29.2998 32.8118 30.5068 33.4824C30.6857 33.5941 30.7974 33.6836 30.7527 33.9294C30.5963 34.7789 30.5516 35.6283 30.708 36.4553C30.7974 36.9695 30.641 37.193 30.2163 37.4389C28.8751 38.2436 28.2715 39.8977 28.7186 41.3954C29.1657 42.9154 30.5292 43.9213 32.0939 43.9436C32.8986 43.9436 33.6139 43.653 34.2175 43.273C35.1116 43.7648 35.9163 44.3013 36.7657 44.7036C37.1904 44.9048 37.3022 45.0836 37.3022 45.5307C37.3245 46.9837 38.0398 48.0342 39.3363 48.6378C40.6104 49.2413 41.8622 49.0848 42.9799 48.2131C43.9411 47.4531 44.3881 46.4472 44.3211 45.2178C44.3211 44.9942 44.3881 44.9048 44.5893 44.8378C44.8799 44.7483 45.1481 44.6142 45.4164 44.4578C46.0646 44.0778 46.7128 43.6754 47.3611 43.2507C47.4952 43.3177 47.674 43.4295 47.8528 43.5189C50.2223 44.7707 53.1058 43.0495 53.0388 40.3671C53.0164 39.026 52.3905 37.9977 51.2282 37.3495H51.2729ZM40.834 40.233C38.174 40.233 35.961 38.0201 35.9834 35.36C35.9834 32.7 38.174 30.5318 40.834 30.5318C43.494 30.5318 45.7069 32.7447 45.6846 35.4048C45.6846 38.0648 43.494 40.233 40.834 40.233Z" fill="#FAB221"/>
<path d="M40.8565 32.4766C39.2247 32.4766 37.9282 33.773 37.9282 35.3825C37.9282 36.9919 39.2247 38.2884 40.8341 38.2884C42.4659 38.2884 43.7624 36.9919 43.7624 35.3825C43.7624 33.773 42.4659 32.4766 40.8565 32.4766Z" fill="#FAB221"/>
</svg>
